<?xml version="1.0" encoding="UTF-8"?><svg id="uuid-c70200f3-d1ba-4ba0-899a-51970dacf748" xmlns="http://www.w3.org/2000/svg" xmlns:xlink="http://www.w3.org/1999/xlink" viewBox="0 0 67.2 67.2"><defs><clipPath id="uuid-62fe3a8e-9570-42b6-9005-b6075b4152aa"><rect width="67.2" height="67.2" style="fill:none;"/></clipPath><clipPath id="uuid-92d326d6-9130-476c-9d3b-56608fc633a1"><rect width="67.2" height="67.19" style="fill:none;"/></clipPath><clipPath id="uuid-64889fd9-54da-4850-9008-1bdb51c03bed"><rect width="67.2" height="67.2" style="fill:none;"/></clipPath><clipPath id="uuid-66c2fae3-5b49-48e1-a422-aa3e05f42bd9"><rect width="67.2" height="67.2" style="fill:none;"/></clipPath></defs><g id="uuid-1061728e-937c-4b4c-94f5-c0d8c9163d97"><g style="clip-path:url(#uuid-62fe3a8e-9570-42b6-9005-b6075b4152aa);"><path d="M38.18,36.92l6.69,7.06c.84.89.91,2.18.16,2.89-.75.71-2.04.57-2.88-.31l.4.42c.84.89.91,2.18.16,2.89-.72.68-1.92.58-2.75-.19.57.85.54,1.92-.12,2.55-.75.71-2.04.57-2.88-.31l-.31-.32c.36.78.27,1.66-.31,2.21-.73.69-1.96.58-2.8-.23l.55-.52c1.07-1.02,1.12-2.71.1-3.79-.39-.41-.89-.68-1.43-.78.09-.77-.15-1.56-.72-2.17-.5-.52-1.17-.81-1.85-.83,0-.66-.25-1.31-.74-1.82-.46-.48-1.05-.75-1.66-.82.07-.74-.17-1.51-.72-2.09-1.02-1.07-2.71-1.12-3.78-.1l-.06.06c-.15-.86-.15-1.72.01-2.53l6.23-5.9c1.05-.15,2.16-.03,3.23.33l-2.17.53c-.45.11-.87.34-1.21.66-.43.4-.71.95-.8,1.52l-.52,3.25c-.23,1.46.77,2.83,2.22,3.06.83.13,1.65-.12,2.26-.7.43-.41.71-.94.8-1.52l.24-1.5,3.04-.75c.45-.11.86-.33,1.2-.65l.39.41M50.67,37.87l-.84.8c-1.07,1.01-2.77.97-3.79-.1l-8.14-8.59c-1.01-1.07-.97-2.77.1-3.79l.84-.8c1.07-1.01,2.77-.97,3.79.1l8.14,8.59c1.01,1.07.97,2.77-.1,3.79ZM29.66,30.12l-8.59,8.14c-1.07,1.01-2.77.97-3.79-.1l-.8-.84c-1.01-1.07-.97-2.77.1-3.79l8.59-8.14c1.07-1.01,2.77-.97,3.79.1l.8.84c1.01,1.07.97,2.77-.1,3.79ZM27.49,44.03c-.36,0-.71.15-.98.4l-1.91,1.81c-.28.27-.45.63-.46,1.02,0,.39.13.76.4,1.05.28.3.68.46,1.09.46.29,0,.57-.1.81-.26l2.26-2.15c.42-.57.37-1.36-.12-1.87-.28-.3-.68-.47-1.1-.46ZM25.11,41.12c-.37,0-.71.15-.98.4l-1.91,1.81c-.28.27-.45.63-.46,1.03s.13.76.4,1.05c.28.3.68.47,1.1.46.36,0,.71-.15.98-.4l1.91-1.81c.28-.27.45-.63.46-1.03.01-.39-.13-.76-.4-1.05-.28-.3-.68-.47-1.1-.46ZM30.08,46.69c-.29,0-.57.1-.81.26l-2.26,2.15c-.42.57-.37,1.35.12,1.87.28.3.68.47,1.09.46.26,0,.51-.08.73-.21l2.28-2.13c.48-.57.45-1.4-.06-1.95-.28-.3-.68-.46-1.09-.46ZM31.75,49.72l-2.22,2.07c-.26.55-.16,1.2.26,1.64.28.3.68.47,1.1.46h0c.36,0,.71-.15.98-.4l1.4-1.32c.28-.27.45-.63.46-1.03.01-.39-.13-.76-.4-1.05-.39-.42-1.03-.56-1.57-.37ZM38.89,33.14c-.37-.39-.93-.56-1.46-.45l-6.6,1.61c-.25.06-.48.19-.66.36-.23.22-.39.52-.44.84l-.5,3.17c-.13.79.35,1.55,1.07,1.73.49.12,1.01-.01,1.38-.36.24-.22.39-.51.44-.83l.36-2.28.27-.08,5.56-1.35h.19s.25.26.25.26l4.81,5.08c.23-.85.3-1.73.21-2.56l-4.88-5.15Z" style="fill:#000f24;"/></g><g style="clip-path:url(#uuid-92d326d6-9130-476c-9d3b-56608fc633a1);"><g style="clip-path:url(#uuid-64889fd9-54da-4850-9008-1bdb51c03bed);"><path d="M65.8,35c-.36,0-.72-.14-.99-.41L33.6,3.38,2.39,34.59c-.54.55-1.43.55-1.98,0-.55-.55-.55-1.43,0-1.98L32.61.41c.55-.55,1.43-.55,1.98,0l32.2,32.2c.55.55.55,1.43,0,1.98-.27.27-.63.41-.99.41" style="fill:#000f24;"/><path d="M57.4,67.2H9.8c-.77,0-1.4-.63-1.4-1.4v-30.8c0-.77.63-1.4,1.4-1.4s1.4.63,1.4,1.4v29.4h44.8v-29.4c0-.77.63-1.4,1.4-1.4s1.4.63,1.4,1.4v30.8c0,.77-.63,1.4-1.4,1.4" style="fill:#000f24;"/></g></g><g style="clip-path:url(#uuid-66c2fae3-5b49-48e1-a422-aa3e05f42bd9);"><path d="M9.8,19.6c-.77,0-1.4-.63-1.4-1.4V1.4C8.4.63,9.03,0,9.8,0h8.4c.77,0,1.4.63,1.4,1.4v8.4c0,.77-.63,1.4-1.4,1.4s-1.4-.63-1.4-1.4V2.8h-5.6v15.4c0,.77-.63,1.4-1.4,1.4" style="fill:#000f24;"/></g></g></svg>