<?xml version="1.0" encoding="UTF-8"?><svg id="uuid-78610e6b-41aa-471e-a6aa-3835eb04fc76" xmlns="http://www.w3.org/2000/svg" xmlns:xlink="http://www.w3.org/1999/xlink" viewBox="0 0 56.56 60.98"><defs><clipPath id="uuid-8a6b5be2-c839-482b-8f61-2e577f5d7a13"><rect width="56.56" height="60.98" style="fill:none;"/></clipPath></defs><g id="uuid-3ffacf70-800b-40a5-94f5-0e81f5f1a7c2"><g style="clip-path:url(#uuid-8a6b5be2-c839-482b-8f61-2e577f5d7a13);"><path d="M43.97,43.3h-2.55c-.68,0-1.23.55-1.23,1.23v2.62c0,.68.55,1.23,1.23,1.23h2.55c.68,0,1.23-.55,1.23-1.23v-2.62c0-.68-.55-1.23-1.23-1.23M50.47,43.3h-2.55c-.68,0-1.23.55-1.23,1.23v9.85c0,.68.55,1.23,1.23,1.23h2.55c.68,0,1.23-.55,1.23-1.23v-9.85c0-.68-.55-1.23-1.23-1.23ZM43.97,50.47h-2.55c-.68,0-1.23.55-1.23,1.23v2.62c0,.68.55,1.23,1.23,1.23h2.55c.68,0,1.23-.55,1.23-1.23v-2.62c0-.68-.55-1.23-1.23-1.23ZM37.47,43.3h-2.55c-.68,0-1.23.55-1.23,1.23v2.62c0,.68.55,1.23,1.23,1.23h2.55c.68,0,1.23-.55,1.23-1.23v-2.62c0-.68-.55-1.23-1.23-1.23ZM37.47,50.47h-2.55c-.68,0-1.23.55-1.23,1.23v2.62c0,.68.55,1.23,1.23,1.23h2.55c.68,0,1.23-.55,1.23-1.23v-2.62c0-.68-.55-1.23-1.23-1.23ZM34.98,39.92h15.37c.68,0,1.23-.55,1.23-1.23v-3.78c0-.68-.55-1.23-1.23-1.23h-15.37c-.68,0-1.23.55-1.23,1.23v3.78c0,.68.55,1.23,1.23,1.23ZM40.17,34.6c.18.17.18.46,0,.63l-3.57,3.67c-.09.09-.2.14-.32.14s-.22-.04-.31-.13c-.18-.17-.18-.46,0-.63l3.57-3.67c.17-.18.45-.18.63,0ZM34.77,36.38l1.41-1.41c.17-.18.46-.18.63,0,.17.17.17.46,0,.63l-1.41,1.41c-.09.09-.2.13-.32.13s-.23-.04-.32-.13c-.17-.17-.17-.46,0-.63ZM51.49,28.94h-17.64c-2.8,0-5.07,2.27-5.07,5.07v21.9c0,2.8,2.27,5.07,5.07,5.07h17.64c2.8,0,5.07-2.27,5.07-5.07v-21.9c0-2.8-2.27-5.07-5.07-5.07ZM53.96,56.02c0,1.29-1.05,2.34-2.35,2.34h-17.89c-1.29,0-2.35-1.05-2.35-2.34v-22.11c0-1.29,1.05-2.34,2.35-2.34h17.89c1.29,0,2.35,1.05,2.35,2.34v22.11Z" style="fill:#000f24;"/><path d="M8.56,36.12c0,.73.59,1.32,1.32,1.32h15.65v-2.64h-15.65c-.73,0-1.32.59-1.32,1.32M0,4.04v47.99c0,2.23,1.81,4.04,4.04,4.04h21.77c0-.05,0-.1,0-.15v-3.26H4.04c-.35,0-.63-.28-.63-.63V4.04c0-.35.28-.63.63-.63h31.66c.35,0,.63.28.63.63v21.91h3.41V4.04C39.74,1.81,37.93,0,35.7,0H4.04C1.81,0,0,1.81,0,4.04ZM9.88,28.84h17.53c.6-.66.65-.72,1.36-1.28.71-.56,1.52-.9,1.52-.9,0,0-.13-.14-.26-.23-.21-.15-.47-.22-.73-.22H9.88c-.73,0-1.32.59-1.32,1.32s.59,1.32,1.32,1.32ZM8.56,44.72c0,.73.59,1.32,1.32,1.32h15.65v-2.64h-15.65c-.73,0-1.32.59-1.32,1.32ZM30.61,18.92c0-.73-.59-1.32-1.32-1.32H9.88c-.73,0-1.32.59-1.32,1.32s.59,1.32,1.32,1.32h19.42c.73,0,1.32-.59,1.32-1.32ZM30.61,11.09c0-.73-.59-1.32-1.32-1.32H9.88c-.73,0-1.32.59-1.32,1.32s.59,1.32,1.32,1.32h19.42c.73,0,1.32-.59,1.32-1.32Z" style="fill:#000f24;"/></g></g></svg>