<?xml version="1.0" encoding="UTF-8"?><svg id="uuid-4774d88d-e27e-4087-bea7-d626376f676b" xmlns="http://www.w3.org/2000/svg" xmlns:xlink="http://www.w3.org/1999/xlink" viewBox="0 0 49.59 57.53"><defs><clipPath id="uuid-68d35168-8a2d-4442-a373-4438ff12a8a3"><rect x="0" width="49.58" height="57.53" style="fill:none;"/></clipPath><clipPath id="uuid-273eadc3-c50d-46cb-8600-769b488e7b35"><rect width="49.59" height="57.53" style="fill:none;"/></clipPath><clipPath id="uuid-764b3fbb-d3d8-4336-b957-caf87ebfdcdc"><rect width="49.59" height="57.53" style="fill:none;"/></clipPath></defs><g id="uuid-ad45f674-cc98-437e-b697-6f9ef3a4cf3a"><g style="clip-path:url(#uuid-68d35168-8a2d-4442-a373-4438ff12a8a3);"><g style="clip-path:url(#uuid-273eadc3-c50d-46cb-8600-769b488e7b35);"><polyline points="2.7 4.21 19.91 10.03 22.9 9.02 22.9 9.01 24.79 8.37 0 0 0 16.75 2.7 15.84 2.7 4.21" style="fill:#000f24;"/><polyline points="24.79 49.17 22.9 49.78 22.9 48.56 19.98 47.62 3.18 53.24 3.18 42.18 0 41.15 0 57.53 24.79 49.34 24.8 49.17 24.79 49.17" style="fill:#000f24;"/><polyline points="3.18 38.73 2.7 38.57 2.7 15.84 0 16.75 0 41.15 3.18 42.18 3.18 38.73" style="fill:#000f24;"/></g></g><g style="clip-path:url(#uuid-764b3fbb-d3d8-4336-b957-caf87ebfdcdc);"><polyline points="19.98 47.62 22.9 48.56 22.9 46.64 19.98 47.62" style="fill:#000f24;"/><polyline points="22.43 12.44 22.9 12.28 22.9 9.02 19.91 10.03 22.43 10.88 22.43 12.44" style="fill:#000f24;"/><polyline points="24.79 49.17 24.8 49.17 24.8 49.17 24.79 49.17" style="fill:#000f24;"/><polyline points="22.43 12.44 22.43 10.88 19.91 10.03 2.7 15.84 2.7 38.57 3.18 38.73 3.18 18.95 22.43 12.44" style="fill:#000f24;"/><polyline points="24.79 8.37 26.68 9.01 26.68 9.02 29.68 10.03 46.88 4.21 46.88 15.84 49.59 16.75 49.59 0 24.79 8.37" style="fill:#000f24;"/><polyline points="22.9 9.02 23.55 8.8 25.95 11.78 26.04 8.8 26.68 9.02 26.68 9.01 24.79 8.37 22.9 9.01 22.9 9.02" style="fill:#000f24;"/><polyline points="22.9 49.78 24.79 49.17 22.9 48.56 22.9 49.78" style="fill:#000f24;"/><polyline points="25.95 11.78 23.55 8.8 22.9 9.02 22.9 48.56 24.79 49.17 24.8 49.17 25.95 11.78" style="fill:#000f24;"/><polyline points="46.41 53.24 29.81 47.69 26.68 48.72 26.68 49.78 25.05 49.26 24.79 49.34 49.59 57.53 49.59 41.15 46.41 42.2 46.41 53.24" style="fill:#000f24;"/><polyline points="26.68 49.78 26.68 48.72 25.05 49.26 26.68 49.78" style="fill:#000f24;"/><polyline points="24.8 49.17 24.79 49.34 25.05 49.26 24.8 49.17" style="fill:#000f24;"/><polyline points="46.41 42.2 49.59 41.15 46.41 42.18 46.41 42.2" style="fill:#000f24;"/><polyline points="26.68 48.56 26.68 48.72 29.81 47.69 29.6 47.62 26.68 48.56" style="fill:#000f24;"/><polyline points="24.8 49.17 24.8 49.17 25.05 49.26 26.68 48.72 26.68 48.56 24.8 49.17" style="fill:#000f24;"/><polyline points="46.88 37.8 49.59 41.15 49.59 16.75 46.88 15.84 46.88 37.8" style="fill:#000f24;"/><polyline points="27.16 12.44 27.16 10.88 29.68 10.03 26.68 9.02 26.68 12.28 27.16 12.44" style="fill:#000f24;"/><polyline points="25.95 11.78 26.68 12.7 26.68 9.02 26.04 8.8 25.95 11.78" style="fill:#000f24;"/><polyline points="46.88 38.57 46.41 38.73 46.41 42.18 49.59 41.15 46.88 37.79 46.88 38.57" style="fill:#000f24;"/><polyline points="29.6 47.62 26.68 46.64 26.68 48.56 29.6 47.62" style="fill:#000f24;"/><polyline points="26.68 48.56 26.68 12.7 25.95 11.78 24.8 49.17 26.68 48.56" style="fill:#000f24;"/><path d="M27.16,12.44l19.25,6.51v18.25l.47.59V15.84l-2.38-.8v.8c0,.42-.34.75-.75.75s-.75-.34-.75-.75v-1.31l-6.79-2.29-2.6.77c-.4.12-.82-.11-.94-.51-.12-.4.11-.82.51-.94l.55-.16-4.05-1.37-2.52.85v1.56" style="fill:#000f24;"/><polyline points="46.41 38.73 46.88 38.57 46.88 37.79 46.41 37.2 46.41 38.73" style="fill:#000f24;"/><path d="M43.75,33.19c-.17,0-.33.06-.45.15l1.21,1.5v-.9c0-.42-.34-.75-.75-.75" style="fill:#000f24;"/><path d="M43,33.95v3.79c0,.42.34.75.75.75s.75-.34.75-.75v-2.89l-1.21-1.5c-.18.14-.3.35-.3.6" style="fill:#000f24;"/><path d="M12.76,17.7l-8.1,2.64v9.84l8.1-2.68v-9.8M11.26,26.42l-5.09,1.68v-6.66l5.09-1.66v6.64Z" style="fill:#000f24;"/><path d="M21.59,14.8l-8.1,2.64v9.84l8.1-2.68v-9.8M20.08,23.52l-5.09,1.68v-6.66l5.09-1.66v6.64Z" style="fill:#000f24;"/><polyline points="4.66 40.78 6.99 40.01 4.66 39.23 4.66 40.78" style="fill:#000f24;"/><path d="M12.76,28.3l-8.1,2.64v8.29l2.33.78,5.77-1.91v-9.8M11.26,37.01l-5.09,1.68v-6.66l5.09-1.66v6.64Z" style="fill:#000f24;"/><path d="M21.59,25.4l-8.1,2.64v9.84l8.1-2.68v-9.8M20.08,34.11l-5.09,1.68v-6.66l5.09-1.66v6.64Z" style="fill:#000f24;"/><polyline points="33.72 11.4 36.2 12.24 43 10.23 43 14.53 44.51 15.04 44.51 8.21 33.72 11.4" style="fill:#000f24;"/><path d="M33.17,11.56c-.4.12-.63.54-.51.94.12.4.54.63.94.51l2.6-.77-2.48-.84-.55.16" style="fill:#000f24;"/><path d="M43,15.84c0,.42.34.75.75.75s.75-.34.75-.75v-.8l-1.51-.51v1.31" style="fill:#000f24;"/></g></g></svg>