<?xml version="1.0" encoding="UTF-8"?><svg id="uuid-1ddcd298-8021-4e4c-9bf1-74a71cbc5339" xmlns="http://www.w3.org/2000/svg" viewBox="0 0 559.88 186.35"><g id="uuid-0730c355-51f2-47fe-9026-7f4814d0257d"><polyline points="0 186.35 0 0 559.88 0 453.14 186.35 0 186.35" style="fill:#fff; fill-rule:evenodd; opacity:.23;"/><path d="M97.05,84.69c-2,0-3.78-.49-5.35-1.48-1.57-.98-2.82-2.32-3.73-4.02-.92-1.69-1.37-3.59-1.37-5.7s.46-4,1.37-5.7c.92-1.69,2.16-3.03,3.73-4.02,1.57-.98,3.35-1.48,5.35-1.48s3.66.39,5.23,1.17,2.77,1.84,3.59,3.18l-2.34,2.87c-.44-.63-1-1.2-1.68-1.72-.68-.52-1.41-.93-2.17-1.23-.77-.3-1.5-.45-2.21-.45-1.31,0-2.48.32-3.51.96s-1.84,1.52-2.44,2.64c-.6,1.12-.9,2.38-.9,3.77s.31,2.64.94,3.75c.63,1.11,1.46,1.99,2.5,2.64,1.04.66,2.19.98,3.44.98.74,0,1.46-.12,2.15-.37.7-.25,1.37-.61,2.03-1.11.66-.49,1.27-1.09,1.85-1.8l2.34,2.87c-.88,1.23-2.13,2.24-3.75,3.03-1.63.79-3.31,1.19-5.06,1.19Z"/><path d="M117.39,84.69c-1.53,0-2.86-.36-4-1.07-1.13-.71-2.01-1.71-2.62-2.99-.62-1.28-.92-2.81-.92-4.59v-13.28h4.22v12.14c0,1.26.2,2.34.59,3.26.4.92.97,1.62,1.72,2.11.75.49,1.66.74,2.73.74.79,0,1.52-.13,2.17-.39.66-.26,1.22-.62,1.7-1.09.48-.46.85-1.03,1.13-1.68.27-.66.41-1.37.41-2.13v-12.96h4.22v21.53h-4.22v-4.51l.74-.49c-.33,1.01-.88,1.93-1.66,2.75s-1.7,1.47-2.77,1.95-2.21.72-3.44.72Z"/><path d="M141.83,84.69c-1.8,0-3.43-.31-4.88-.94-1.45-.63-2.65-1.56-3.61-2.79l2.87-2.46c.82.96,1.72,1.65,2.69,2.07.97.42,2.07.64,3.3.64.49,0,.95-.06,1.37-.18.42-.12.79-.31,1.11-.55.31-.25.55-.54.72-.88s.25-.72.25-1.13c0-.71-.26-1.28-.78-1.72-.27-.19-.7-.4-1.29-.64-.59-.23-1.35-.47-2.28-.72-1.59-.41-2.88-.87-3.9-1.39-1.01-.52-1.79-1.11-2.34-1.76-.41-.52-.71-1.09-.9-1.7-.19-.61-.29-1.29-.29-2.03,0-.9.2-1.73.59-2.48.4-.75.94-1.41,1.64-1.97.7-.56,1.52-.99,2.46-1.29.94-.3,1.95-.45,3.01-.45s2.02.14,3.01.41c1,.27,1.92.67,2.77,1.19.85.52,1.56,1.13,2.13,1.84l-2.42,2.67c-.52-.52-1.09-.98-1.7-1.37-.61-.4-1.24-.7-1.87-.92-.63-.22-1.2-.33-1.72-.33-.57,0-1.09.06-1.56.16-.46.11-.85.27-1.17.49-.31.22-.55.49-.72.82s-.25.7-.25,1.11c.03.36.12.69.27,1,.15.31.36.58.64.8.3.22.75.45,1.35.7.6.25,1.37.48,2.3.7,1.37.36,2.49.75,3.38,1.17.89.42,1.59.91,2.11,1.46.55.52.93,1.12,1.15,1.8.22.68.33,1.45.33,2.3,0,1.23-.35,2.33-1.05,3.3-.7.97-1.63,1.73-2.81,2.28-1.18.55-2.49.82-3.94.82Z"/><path d="M152.49,66.86v-4.1h13.69v4.1h-13.69ZM156.95,84.28v-27.02h4.22v27.02h-4.22Z"/><path d="M179.71,84.69c-2.1,0-3.98-.49-5.64-1.46-1.65-.97-2.96-2.3-3.92-3.98-.96-1.68-1.44-3.6-1.44-5.76s.48-4.08,1.44-5.76c.96-1.68,2.26-3.01,3.92-3.98,1.65-.97,3.53-1.46,5.64-1.46s3.94.49,5.6,1.46c1.65.97,2.96,2.3,3.92,3.98.96,1.68,1.44,3.6,1.44,5.76s-.48,4.08-1.44,5.76c-.96,1.68-2.26,3.01-3.92,3.98-1.65.97-3.52,1.46-5.6,1.46ZM179.71,80.84c1.28,0,2.43-.32,3.44-.96s1.8-1.52,2.38-2.62c.57-1.11.85-2.36.82-3.75.03-1.42-.25-2.69-.82-3.79-.57-1.11-1.37-1.97-2.38-2.6s-2.16-.94-3.44-.94-2.44.32-3.46.96-1.82,1.52-2.4,2.62c-.57,1.11-.85,2.36-.82,3.75-.03,1.39.25,2.64.82,3.75.57,1.11,1.37,1.98,2.4,2.62s2.18.96,3.46.96Z"/><path d="M195.17,84.28v-21.53h4.26v4.59l-.78.49c.22-.71.57-1.39,1.05-2.05.48-.66,1.07-1.24,1.76-1.74.7-.51,1.45-.91,2.25-1.21.81-.3,1.63-.45,2.48-.45,1.23,0,2.31.2,3.24.61.93.41,1.69,1.03,2.3,1.85.6.82,1.04,1.84,1.31,3.07l-.66-.16.29-.7c.3-.63.72-1.22,1.25-1.78.53-.56,1.14-1.06,1.82-1.5.68-.44,1.41-.78,2.17-1.03.77-.25,1.52-.37,2.25-.37,1.61,0,2.95.33,4,.98,1.05.66,1.85,1.65,2.38,2.99.53,1.34.8,3.01.8,5v12.92h-4.26v-12.67c0-1.23-.16-2.23-.47-3.01-.31-.78-.79-1.36-1.41-1.74s-1.43-.57-2.42-.57c-.77,0-1.48.13-2.15.39-.67.26-1.25.62-1.74,1.09-.49.47-.88,1-1.15,1.62-.27.62-.41,1.29-.41,2.03v12.87h-4.26v-12.75c0-1.12-.16-2.07-.49-2.85-.33-.78-.81-1.37-1.44-1.78-.63-.41-1.39-.62-2.3-.62-.77,0-1.48.13-2.13.39-.66.26-1.23.62-1.72,1.07-.49.45-.88.98-1.15,1.6-.27.62-.41,1.28-.41,1.99v12.96h-4.26Z"/><path d="M243.05,84.69c-2.21,0-4.18-.47-5.88-1.42-1.71-.94-3.05-2.23-4.02-3.87-.97-1.64-1.46-3.53-1.46-5.66,0-1.69.27-3.24.82-4.63.55-1.39,1.31-2.6,2.28-3.63.97-1.02,2.13-1.82,3.49-2.38,1.35-.56,2.82-.84,4.41-.84,1.39,0,2.69.27,3.9.8,1.2.53,2.25,1.26,3.14,2.19.89.93,1.57,2.03,2.05,3.3.48,1.27.7,2.66.68,4.16l-.04,1.8h-17.59l-.94-3.36h14.88l-.61.7v-.98c-.08-.9-.38-1.71-.9-2.42-.52-.71-1.18-1.27-1.97-1.68-.79-.41-1.65-.62-2.58-.62-1.48,0-2.72.28-3.73.84-1.01.56-1.78,1.38-2.3,2.46-.52,1.08-.78,2.41-.78,4s.31,2.81.94,3.92c.63,1.11,1.52,1.96,2.67,2.56s2.47.9,3.98.9c1.07,0,2.06-.18,2.97-.53.92-.36,1.91-1,2.97-1.93l2.13,2.99c-.66.66-1.46,1.23-2.4,1.72-.94.49-1.94.88-2.99,1.17s-2.08.43-3.1.43Z"/><path d="M257.03,84.28v-21.53h4.26v6.77l-.41-1.64c.3-1.04.81-1.98,1.54-2.83.72-.85,1.56-1.52,2.5-2.01.94-.49,1.92-.74,2.93-.74.46,0,.91.04,1.33.12.42.08.76.18,1,.29l-1.11,4.59c-.33-.14-.69-.25-1.09-.35-.4-.1-.79-.14-1.17-.14-.74,0-1.44.14-2.11.43-.67.29-1.26.68-1.76,1.19-.51.51-.91,1.09-1.21,1.76-.3.67-.45,1.4-.45,2.19v11.89h-4.26Z"/><path d="M94.43,132.08v-24.44h-8.04v-4.26h20.75v4.26h-8.28v24.44h-4.43Z" style="fill:#fff;"/><path d="M112.59,132.08v-28.7h18.08v4.26h-13.65v20.17h13.65v4.26h-18.08ZM114.6,119.49v-4.26h13.82v4.26h-13.82Z" style="fill:#fff;"/><path d="M146.62,132.49c-1.56,0-3-.21-4.33-.62-1.33-.41-2.53-1.03-3.61-1.87-1.08-.83-2.04-1.87-2.89-3.1l3.03-3.49c1.34,1.91,2.62,3.24,3.85,3.98s2.69,1.11,4.39,1.11c1.04,0,1.98-.16,2.83-.49.85-.33,1.52-.78,2.01-1.35.49-.57.74-1.23.74-1.97,0-.49-.08-.96-.25-1.39-.16-.44-.42-.83-.76-1.19-.34-.36-.78-.68-1.31-.98-.53-.3-1.15-.57-1.87-.8-.71-.23-1.53-.43-2.46-.59-1.48-.3-2.76-.7-3.85-1.19s-2.01-1.11-2.75-1.84c-.74-.74-1.29-1.58-1.64-2.52-.36-.94-.53-2-.53-3.18s.25-2.21.76-3.2c.51-.98,1.2-1.84,2.09-2.56.89-.72,1.93-1.28,3.14-1.68,1.2-.4,2.5-.59,3.9-.59,1.48,0,2.83.19,4.06.57,1.23.38,2.32.95,3.28,1.7.96.75,1.75,1.67,2.38,2.77l-3.12,3.08c-.55-.9-1.16-1.66-1.84-2.28-.68-.62-1.44-1.08-2.25-1.39-.82-.31-1.7-.47-2.62-.47-1.07,0-2,.16-2.79.49-.79.33-1.41.79-1.87,1.37-.45.59-.68,1.28-.68,2.07,0,.57.11,1.1.33,1.58.22.48.55.9,1,1.27.45.37,1.06.7,1.82.98s1.68.54,2.75.76c1.5.33,2.84.75,4.02,1.25,1.17.51,2.17,1.1,2.99,1.78.82.68,1.44,1.45,1.87,2.3.42.85.64,1.76.64,2.75,0,1.83-.42,3.42-1.27,4.76-.85,1.34-2.05,2.37-3.61,3.1-1.56.72-3.42,1.09-5.58,1.09Z" style="fill:#fff;"/><path d="M168.8,132.08v-24.44h-8.04v-4.26h20.75v4.26h-8.28v24.44h-4.43Z" style="fill:#fff;"/><path d="M185.9,132.08v-4.1h4.63v-20.5h-4.63v-4.1h13.69v4.1h-4.63v20.5h4.63v4.1h-13.69Z" style="fill:#fff;"/><path d="M206.56,132.08v-28.7h4.35l10.46,17.02-2.09-.04,10.58-16.97h4.1v28.7h-4.43v-11.77c0-2.46.06-4.67.18-6.64s.33-3.92.64-5.86l.57,1.52-9.39,14.51h-2.71l-9.1-14.35.45-1.68c.3,1.83.51,3.71.64,5.64.12,1.93.18,4.22.18,6.87v11.77h-4.43Z" style="fill:#fff;"/><path d="M254,132.49c-2.02,0-3.89-.37-5.6-1.11-1.71-.74-3.2-1.77-4.47-3.1-1.27-1.33-2.25-2.88-2.95-4.67-.7-1.79-1.05-3.75-1.05-5.88s.35-4.09,1.05-5.88c.7-1.79,1.68-3.35,2.95-4.67s2.76-2.36,4.47-3.1c1.71-.74,3.57-1.11,5.6-1.11s3.89.37,5.6,1.11c1.71.74,3.2,1.78,4.47,3.12s2.25,2.9,2.95,4.69c.7,1.79,1.05,3.74,1.05,5.84s-.35,4.05-1.05,5.84c-.7,1.79-1.68,3.36-2.95,4.69-1.27,1.34-2.76,2.38-4.47,3.12-1.71.74-3.57,1.11-5.6,1.11ZM254,128.19c1.39,0,2.67-.26,3.83-.78s2.17-1.25,3.01-2.19c.85-.94,1.51-2.05,1.99-3.32.48-1.27.72-2.66.72-4.16s-.24-2.89-.72-4.16c-.48-1.27-1.14-2.38-1.99-3.32-.85-.94-1.85-1.67-3.01-2.19-1.16-.52-2.44-.78-3.83-.78s-2.67.26-3.83.78c-1.16.52-2.17,1.24-3.03,2.17-.86.93-1.52,2.03-1.99,3.3-.46,1.27-.7,2.67-.7,4.2s.23,2.9.7,4.18c.46,1.29,1.13,2.39,1.99,3.32s1.87,1.65,3.03,2.17,2.44.78,3.83.78Z" style="fill:#fff;"/><path d="M274.05,132.08v-28.7h3.98l17.55,23.49-.66.37c-.11-.68-.21-1.43-.29-2.23-.08-.81-.16-1.67-.23-2.58-.07-.92-.12-1.89-.16-2.91s-.08-2.1-.1-3.22c-.03-1.12-.04-2.28-.04-3.48v-9.43h4.43v28.7h-4.06l-17.26-22.63.45-.57c.14,1.67.25,3.08.35,4.24.1,1.16.18,2.15.25,2.95.07.81.12,1.46.14,1.97.03.51.05.92.06,1.25s.02.62.02.86v11.93h-4.43Z" style="fill:#fff;"/><path d="M305.5,132.08v-4.1h4.63v-20.5h-4.63v-4.1h13.69v4.1h-4.63v20.5h4.63v4.1h-13.69Z" style="fill:#fff;"/><path d="M323.17,132.08l11.11-28.7h4.51l11.03,28.7h-4.71l-6.56-17.3c-.08-.19-.24-.66-.47-1.39-.23-.74-.5-1.56-.8-2.46-.3-.9-.57-1.73-.82-2.48-.25-.75-.41-1.24-.49-1.46l.94-.04c-.16.46-.36,1.05-.59,1.76-.23.71-.48,1.46-.74,2.25-.26.79-.51,1.54-.76,2.23-.25.7-.45,1.28-.61,1.74l-6.52,17.14h-4.51ZM328.09,124.95l1.64-4.26h13.04l1.89,4.26h-16.56Z" style="fill:#fff;"/><path d="M354.86,132.08v-28.7h4.43v24.44h13.45v4.26h-17.88Z" style="fill:#fff;"/><path d="M388.28,132.49c-1.56,0-3-.21-4.33-.62-1.33-.41-2.53-1.03-3.61-1.87-1.08-.83-2.04-1.87-2.89-3.1l3.03-3.49c1.34,1.91,2.62,3.24,3.85,3.98s2.69,1.11,4.39,1.11c1.04,0,1.98-.16,2.83-.49.85-.33,1.52-.78,2.01-1.35.49-.57.74-1.23.74-1.97,0-.49-.08-.96-.25-1.39-.16-.44-.42-.83-.76-1.19-.34-.36-.78-.68-1.31-.98-.53-.3-1.15-.57-1.87-.8-.71-.23-1.53-.43-2.46-.59-1.48-.3-2.76-.7-3.85-1.19s-2.01-1.11-2.75-1.84c-.74-.74-1.29-1.58-1.64-2.52-.36-.94-.53-2-.53-3.18s.25-2.21.76-3.2c.51-.98,1.2-1.84,2.09-2.56.89-.72,1.93-1.28,3.14-1.68,1.2-.4,2.5-.59,3.9-.59,1.48,0,2.83.19,4.06.57,1.23.38,2.32.95,3.28,1.7.96.75,1.75,1.67,2.38,2.77l-3.12,3.08c-.55-.9-1.16-1.66-1.84-2.28-.68-.62-1.44-1.08-2.25-1.39-.82-.31-1.7-.47-2.62-.47-1.07,0-2,.16-2.79.49-.79.33-1.41.79-1.87,1.37-.45.59-.68,1.28-.68,2.07,0,.57.11,1.1.33,1.58.22.48.55.9,1,1.27.45.37,1.06.7,1.82.98s1.68.54,2.75.76c1.5.33,2.84.75,4.02,1.25,1.17.51,2.17,1.1,2.99,1.78.82.68,1.44,1.45,1.87,2.3.42.85.64,1.76.64,2.75,0,1.83-.42,3.42-1.27,4.76-.85,1.34-2.05,2.37-3.61,3.1-1.56.72-3.42,1.09-5.58,1.09Z" style="fill:#fff;"/></g></svg>