<?xml version="1.0" encoding="UTF-8"?><svg id="uuid-7aed21d9-c657-46ed-a902-5fcf84524b64" xmlns="http://www.w3.org/2000/svg" xmlns:xlink="http://www.w3.org/1999/xlink" viewBox="0 0 82.71 82.71"><defs><clipPath id="uuid-5517ff3d-4668-4c2b-b7e5-7e14a136a523"><rect x="13.1" y="13.27" width="64.6" height="64.3" style="fill:none;"/></clipPath><clipPath id="uuid-c30d46a1-9907-40ce-9a4b-91373b21d731"><rect x="13.1" y="13.27" width="64.6" height="64.3" style="fill:none;"/></clipPath></defs><g id="uuid-f96c7a28-fd24-43be-a41a-7cfbc2b5cbc0"><path d="M0,41.36C0,18.53,18.53,0,41.36,0s41.36,18.53,41.36,41.36-18.53,41.36-41.36,41.36S0,64.18,0,41.36" style="fill:#ffc212; fill-rule:evenodd;"/><g style="clip-path:url(#uuid-5517ff3d-4668-4c2b-b7e5-7e14a136a523);"><path d="M71.42,77.59c-.62,0-1.2-.24-1.64-.68l-10.34-10.34c-.44-.44-.68-1.02-.68-1.64,0-.62.25-1.2.69-1.64l3.96-3.96c.9-.9,2.37-.9,3.27,0l10.34,10.34c.9.9.9,2.37,0,3.27l-3.97,3.97c-.43.43-1.01.68-1.63.68h0M63.34,64.93l8.08,8.08,1.7-1.7-8.08-8.08-1.7,1.7Z" style="fill:#fff;"/></g><polyline points="60.64 63.29 57.1 59.76 59.87 56.99 63.4 60.53 60.64 63.29" style="fill:#fff;"/><rect x="13.09" y="13.27" width="64.61" height="64.31" style="fill:none;"/><g style="clip-path:url(#uuid-c30d46a1-9907-40ce-9a4b-91373b21d731);"><path d="M40.48,68.05c-15.1,0-27.39-12.29-27.39-27.39s12.29-27.39,27.39-27.39,27.39,12.29,27.39,27.39-12.29,27.39-27.39,27.39M40.48,17.19c-12.94,0-23.48,10.53-23.48,23.48s10.53,23.48,23.48,23.48,23.48-10.53,23.48-23.48-10.53-23.48-23.48-23.48Z" style="fill:#fff;"/></g><path d="M50.96,57.35h-20.62V23.16h20.62v34.19ZM51.53,22.02h-21.76c-.34,0-.57.23-.57.57v35.32c0,.34.23.57.57.57h21.76c.34,0,.57-.23.57-.57V22.59c0-.34-.28-.57-.57-.57Z" style="fill:#fff;"/><path d="M33.86,26.7h4.44v8.89h-4.44v-8.89ZM33.3,36.73h5.58c.34,0,.57-.23.57-.57v-10.03c0-.34-.23-.57-.57-.57h-5.58c-.34,0-.57.23-.57.57v10.03c0,.34.28.57.57.57Z" style="fill:#fff;"/><path d="M33.86,44.93h4.44v8.89h-4.44v-8.89ZM33.3,54.96h5.58c.34,0,.57-.23.57-.57v-10.03c0-.34-.23-.57-.57-.57h-5.58c-.34,0-.57.23-.57.57v10.03c0,.34.28.57.57.57Z" style="fill:#fff;"/><path d="M42.98,26.7h4.44v8.89h-4.44v-8.89ZM42.41,36.73h5.58c.34,0,.57-.23.57-.57v-10.03c0-.34-.23-.57-.57-.57h-5.58c-.34,0-.57.23-.57.57v10.03c0,.34.23.57.57.57Z" style="fill:#fff;"/><path d="M42.98,44.93h4.44v8.89h-4.44v-8.89ZM42.41,54.96h5.58c.34,0,.57-.23.57-.57v-10.03c0-.34-.23-.57-.57-.57h-5.58c-.34,0-.57.23-.57.57v10.03c0,.34.23.57.57.57Z" style="fill:#fff;"/><path d="M34.32,38.32c-.34,0-.57.23-.57.57v2.68c0,.34.23.57.57.57s.57-.23.57-.57v-.74h1.77c.34,0,.57-.23.57-.57s-.23-.57-.57-.57h-1.77v-.8c0-.28-.23-.57-.57-.57" style="fill:#fff;"/><rect x="13.09" y="13.27" width="64.61" height="64.31" style="fill:none;"/></g></svg>