<?xml version="1.0" encoding="UTF-8"?><svg id="uuid-432ff0df-009c-4b30-ad90-5b9d06b559fe" xmlns="http://www.w3.org/2000/svg" xmlns:xlink="http://www.w3.org/1999/xlink" viewBox="0 0 82.71 82.71"><defs><clipPath id="uuid-944b5895-cdee-47a5-895d-a6273537ead2"><rect x="10.33" y="23.67" width="57.95" height="49.05" style="fill:none;"/></clipPath></defs><g id="uuid-34d92431-0efc-47ae-8fe0-b2855ae7030f"><path d="M82.71,41.36c0,22.83-18.53,41.36-41.35,41.36S0,64.18,0,41.36,18.53,0,41.36,0s41.35,18.53,41.35,41.36Z" style="fill:#ffc212; fill-rule:evenodd;"/><g style="clip-path:url(#uuid-944b5895-cdee-47a5-895d-a6273537ead2);"><path d="M17.33,36.53l19.59-8.34,6.71,15.69c-1.27.54-19.68,8.43-19.59,8.34-4.35,1.81-9.34-.18-11.24-4.53-1.81-4.26.18-9.34,4.53-11.15M36.47,54.03l1.09,2.45-1.9.82-1.9-4.35,2.72,1.09ZM30.75,61.46l-3.63-8.52,3.99-1.72c1.36,3.17,2.9,6.8,3.63,8.52,1,2.63-2.9,4.35-3.99,1.72ZM43.72,28.55l4.35,10.16-3.9,1.63-4.35-10.16,3.9-1.63ZM50.61,29.36l1.63,3.72-3.9,1.63-1.63-3.72,3.9-1.63ZM24.77,53.94l.63-.27,3.63,8.52c.73,1.63,2.45,2.63,4.35,2.36l1.27,2.9c.54,1.27-.09,2.81-1.36,3.35-1.27.54-2.81-.09-3.36-1.36-.45-1.09-1.27-1.9-2.36-2.36-1.09-.45-2.27-.45-3.36,0-.45.18-.63.73-.45,1.18.18.45.73.64,1.18.45.63-.27,1.36-.27,1.99,0,.63.27,1.18.73,1.36,1.36.91,2.27,3.54,3.26,5.71,2.27,2.18-.91,3.26-3.54,2.27-5.71l-1.27-2.9c1.54-1.09,1.99-3.08,1.27-4.72l-.09-.09,2.72-1.18c.18-.09.36-.27.45-.45.09-.18.09-.45,0-.73l-1.54-3.63c-.09-.18-.27-.36-.45-.45l-4.81-1.9,12.51-5.35c.45-.18.64-.73.45-1.18l-.73-1.99,4.72-2c.45-.18.63-.73.45-1.18l-1-2.36,4.72-2c.18-.09.36-.27.45-.45.09-.18.09-.45,0-.73l-.82-1.81,14.42-6.17c.45-.18.63-.73.45-1.18-.18-.45-.73-.63-1.18-.45l-14.42,6.17-.82-1.81c-.18-.45-.72-.64-1.18-.45l-4.72,2-1-2.36c-.09-.18-.27-.36-.45-.45-.18-.09-.45-.09-.72,0l-4.72,2-.82-2c-.09-.18-.27-.36-.45-.45-.18-.09-.45-.09-.72,0l-20.4,8.43c-5.26,2.27-7.71,8.34-5.44,13.6,2.27,5.35,8.34,7.71,13.6,5.53Z" style="fill:#fff;"/></g><path d="M18.87,41.24l15.69-6.71c.45-.18.63-.73.45-1.18-.18-.45-.73-.63-1.18-.45l-15.69,6.71c-.45.18-.63.73-.45,1.18.18.45.73.63,1.18.45" style="fill:#fff;"/><path d="M19.42,44.96c.18.45.73.63,1.18.45l15.69-6.71c.45-.18.63-.73.45-1.18-.18-.45-.73-.63-1.18-.45l-15.69,6.71c-.36.18-.63.63-.45,1.18" style="fill:#fff;"/><path d="M21.23,49.04c.18.45.73.63,1.18.45l15.69-6.71c.45-.18.63-.73.45-1.18-.18-.45-.73-.63-1.18-.45l-15.69,6.71c-.45.18-.63.73-.45,1.18" style="fill:#fff;"/><rect x="10.32" y="23.67" width="57.95" height="49.06" style="fill:none;"/></g></svg>