<?xml version="1.0" encoding="UTF-8"?><svg id="uuid-45ee4139-12d8-4195-bc99-faa5c374d42e" xmlns="http://www.w3.org/2000/svg" xmlns:xlink="http://www.w3.org/1999/xlink" viewBox="0 0 82.71 82.71"><defs><clipPath id="uuid-60f97a31-be7d-4969-b77e-d70dbc0cf5d5"><rect x="11.98" y="20.21" width="59.85" height="47.99" style="fill:none;"/></clipPath></defs><g id="uuid-cd86f347-253f-4792-b297-a62969c14359"><path d="M0,41.36C0,18.53,18.53,0,41.36,0s41.36,18.53,41.36,41.36-18.53,41.36-41.36,41.36" style="fill:#ffc212; fill-rule:evenodd;"/><path d="M41.36,82.71C18.53,82.71,0,64.18,0,41.36" style="fill:#ffc212; fill-rule:evenodd;"/><g style="clip-path:url(#uuid-60f97a31-be7d-4969-b77e-d70dbc0cf5d5);"><path d="M13.84,23.76c0-1.03.84-1.77,1.77-1.77h37.07c1.03,0,1.77.84,1.77,1.77v28.66h-5.42v-22.59c0-2.15-1.77-3.83-3.83-3.83h-11.48c-2.15,0-3.83,1.77-3.83,3.83v22.69H13.84v-28.76M65.38,33.56c2.52,0,4.48,2.05,4.48,4.48v14.38h-13.44v-18.86h8.96ZM47.27,52.42h-15.59v-22.59c0-1.12.93-1.96,1.96-1.96h11.48c1.12,0,1.96.93,1.96,1.96v22.59h.19ZM69.86,59.24c0,1.03-.84,1.77-1.77,1.77h-2.8c-.47-2.89-2.99-5.23-6.07-5.23s-5.6,2.24-6.07,5.23h-22.59c-.47-2.89-2.99-5.23-6.07-5.23s-5.6,2.24-6.07,5.23h-2.8c-1.03,0-1.77-.84-1.77-1.77v-4.95h56.02v4.95ZM59.22,66.24c-2.34,0-4.3-1.96-4.3-4.29s1.96-4.29,4.3-4.29,4.29,1.96,4.29,4.29-1.96,4.29-4.29,4.29ZM24.49,66.24c-2.33,0-4.29-1.96-4.29-4.29s1.96-4.29,4.29-4.29,4.3,1.96,4.3,4.29-1.96,4.29-4.3,4.29ZM15.62,62.97h2.8c.47,2.89,2.99,5.23,6.07,5.23s5.6-2.24,6.07-5.23h22.69c.47,2.89,2.99,5.23,6.07,5.23s5.6-2.24,6.07-5.23h2.8c2.05,0,3.64-1.68,3.64-3.64v-21.19c0-3.55-2.89-6.35-6.35-6.35h-8.96v-7.94c0-2.05-1.68-3.64-3.64-3.64H15.62c-1.96-.09-3.64,1.49-3.64,3.55v35.48c0,2.05,1.68,3.73,3.64,3.73Z" style="fill:#fff;"/></g><path d="M44.19,35.43c-.47-.28-1.03-.09-1.31.28-.93,1.68-.93,3.36,0,5.04.19.28.47.47.84.47.19,0,.28,0,.47-.09.47-.28.56-.84.28-1.31-.65-1.03-.65-2.05,0-3.08.28-.47.19-1.03-.28-1.31" style="fill:#fff;"/><path d="M17.2,33.19h6.16c.56,0,.93-.37.93-.93s-.37-.93-.93-.93h-6.16c-.56,0-.93.37-.93.93s.37.93.93.93" style="fill:#fff;"/><path d="M26.45,34.96h-6.16c-.56,0-.93.37-.93.93s.37.93.93.93h6.16c.56,0,.93-.37.93-.93s-.37-.93-.93-.93" style="fill:#fff;"/><path d="M23.37,38.7h-6.16c-.56,0-.93.37-.93.93s.37.93.93.93h6.16c.56,0,.93-.37.93-.93s-.37-.93-.93-.93" style="fill:#fff;"/><path d="M59.97,45.14h6.26c.56,0,.93-.37.93-.93s-.37-.93-.93-.93h-5.32v-6.07c0-.56-.37-.93-.93-.93s-.93.37-.93.93v7c0,.47.47.93.93.93" style="fill:#fff;"/><rect x="11.98" y="20.21" width="59.85" height="48" style="fill:none;"/></g></svg>