<?xml version="1.0" encoding="UTF-8"?><svg id="uuid-b6ac2e3d-e6f6-4aef-bfe9-fa893ddc64ff" xmlns="http://www.w3.org/2000/svg" xmlns:xlink="http://www.w3.org/1999/xlink" viewBox="0 0 82.71 82.71"><defs><clipPath id="uuid-818bf2e2-a069-41f4-af6f-ab7d94a6c1f4"><rect x="16.96" y="19.24" width="54.27" height="40.67" style="fill:none;"/></clipPath></defs><g id="uuid-6197c080-e01b-4c28-a6b1-db5e567e9ab0"><path d="M0,41.36C0,18.53,18.53,0,41.36,0s41.36,18.53,41.36,41.36-18.53,41.36-41.36,41.36S0,64.18,0,41.36" style="fill:#ffc212; fill-rule:evenodd;"/><g style="clip-path:url(#uuid-818bf2e2-a069-41f4-af6f-ab7d94a6c1f4);"><path d="M50.71,50.16h18.82v4.15h-18.82v-4.15ZM18.66,48.97v-9.24c0-8.39,6.7-15.69,15.18-15.69s15.18,6.78,15.18,15.18v15.18h-24.93c-2.97,0-5.43-2.46-5.43-5.43ZM43.67,21.33l4.24,1.36,1.36,4.24-3.05.85c-1.1-1.19-2.29-2.2-3.65-2.97l1.1-3.48ZM70.39,48.46h-19.67v-9.33c0-3.73-1.27-7.21-3.31-10.01l3.14-.93c.42-.17.68-.59.59-1.1l-1.7-5.51c-.08-.25-.25-.51-.59-.59l-5.51-1.7c-.25-.08-.42-.08-.68.09-.17.08-.34.25-.42.51l-1.27,3.98c-11.19-5.26-24,3.05-24,15.86v9.24c0,3.9,3.22,7.12,7.12,7.12h45.45v2.97c0,.51.34.85.85.85s.85-.34.85-.85c0-1.02,0,3.56,0-9.67,0-.51-.34-.93-.85-.93Z" style="fill:#fff;"/></g><path d="M37.99,43.97l-.76-1.1c-.25-.34-.76-.42-1.19-.17-.34.25-.42.85-.17,1.19l.76,1.1c-.85.42-1.78.68-2.8.68s-1.95-.25-2.8-.68l.76-1.1c.25-.34.17-.93-.17-1.19-.34-.26-.93-.17-1.19.17l-.76,1.1c-1.19-1.1-1.87-2.63-1.87-4.32,0-.34,0-.68.08-.93l1.36.42c.42.17.93-.08,1.1-.51.17-.42-.08-.93-.51-1.1l-1.44-.42c.85-1.78,2.54-3.05,4.58-3.39v1.44c0,.51.34.85.85.85s.85-.34.85-.85v-1.44c2.04.25,3.73,1.61,4.58,3.39l-1.36.42c-.42.17-.68.59-.51,1.1.17.42.59.68,1.1.51l1.36-.42c.08.34.08.59.08.93-.08,1.7-.85,3.22-1.95,4.32M33.84,31.93c-4.32,0-7.72,3.56-7.72,7.72s3.56,7.72,7.72,7.72,7.72-3.48,7.72-7.72-3.65-7.72-7.72-7.72Z" style="fill:#fff;"/><rect x="16.96" y="19.24" width="54.27" height="40.67" style="fill:none;"/></g></svg>