<?xml version="1.0" encoding="UTF-8"?><svg id="uuid-6314d257-bd24-4b7e-b85e-43bb3722c464" xmlns="http://www.w3.org/2000/svg" viewBox="0 0 82.71 82.71"><g id="uuid-a2bf2a70-7efe-4f1a-9a06-3dbc07ff63c8"><path d="M82.71,41.36c0,22.83-18.53,41.36-41.36,41.36S0,64.18,0,41.36,18.53,0,41.36,0s41.36,18.53,41.36,41.36Z" style="fill:#ffc212; fill-rule:evenodd;"/><polyline points="21.27 19.02 36.91 24.31 39.64 23.4 39.64 23.38 41.35 22.8 18.81 15.19 18.81 30.42 21.27 29.59 21.27 19.02" style="fill:#fff;"/><polyline points="41.35 59.9 39.64 60.45 39.64 59.34 36.98 58.48 21.7 63.59 21.7 53.54 18.81 52.6 18.81 67.49 41.35 60.05 41.36 59.9 41.35 59.9" style="fill:#fff;"/><polyline points="21.7 50.4 21.27 50.26 21.27 29.59 18.81 30.42 18.81 52.61 21.7 53.54 21.7 50.4" style="fill:#fff;"/><path d="M82.71,41.36c0,22.83-18.53,41.36-41.36,41.36S0,64.18,0,41.36,18.53,0,41.36,0s41.36,18.53,41.36,41.36Z" style="fill:none; fill-rule:evenodd;"/><rect x="18.81" y="15.19" width="45.08" height="52.3" style="fill:none;"/><rect x="18.82" y="15.19" width="45.07" height="52.3" style="fill:none;"/><polyline points="36.98 58.48 39.64 59.34 39.64 57.59 36.98 58.48" style="fill:#fff;"/><polyline points="39.2 26.51 39.64 26.36 39.64 23.4 36.91 24.31 39.2 25.09 39.2 26.51" style="fill:#fff;"/><polyline points="41.35 59.9 41.36 59.9 41.36 59.89 41.35 59.9" style="fill:#fff;"/><polyline points="39.2 26.51 39.2 25.09 36.91 24.31 21.27 29.59 21.27 50.26 21.7 50.4 21.7 32.42 39.2 26.51" style="fill:#fff;"/><polyline points="41.35 22.8 43.07 23.38 43.07 23.39 45.79 24.31 61.44 19.02 61.44 29.59 63.89 30.42 63.89 15.19 41.35 22.8" style="fill:#fff;"/><polyline points="39.63 23.4 40.22 23.2 42.4 25.9 42.48 23.2 43.07 23.4 43.07 23.38 41.35 22.8 39.63 23.38 39.63 23.4" style="fill:#fff;"/><polyline points="39.63 60.45 41.35 59.9 39.63 59.34 39.63 60.45" style="fill:#fff;"/><polyline points="42.4 25.9 40.22 23.2 39.63 23.4 39.63 59.34 41.35 59.9 41.36 59.9 42.4 25.9" style="fill:#fff;"/><polyline points="61 63.59 45.91 58.54 43.07 59.48 43.07 60.45 41.59 59.97 41.35 60.05 63.89 67.49 63.89 52.61 61 53.56 61 63.59" style="fill:#fff;"/><polyline points="43.07 60.45 43.07 59.48 41.59 59.97 43.07 60.45" style="fill:#fff;"/><polyline points="41.36 59.9 41.35 60.05 41.59 59.97 41.36 59.9" style="fill:#fff;"/><polyline points="61 53.56 63.89 52.61 61 53.54 61 53.56" style="fill:#fff;"/><polyline points="43.07 59.34 43.07 59.48 45.91 58.54 45.72 58.48 43.07 59.34" style="fill:#fff;"/><polyline points="41.36 59.9 41.36 59.9 41.59 59.97 43.07 59.48 43.07 59.34 41.36 59.9" style="fill:#fff;"/><polyline points="61.44 49.55 63.89 52.61 63.89 30.42 61.44 29.59 61.44 49.55" style="fill:#fff;"/><polyline points="43.5 26.51 43.5 25.09 45.79 24.31 43.07 23.4 43.07 26.36 43.5 26.51" style="fill:#fff;"/><polyline points="42.4 25.9 43.07 26.74 43.07 23.4 42.48 23.2 42.4 25.9" style="fill:#fff;"/><polyline points="61.44 50.26 61 50.4 61 53.54 63.89 52.61 61.44 49.55 61.44 50.26" style="fill:#fff;"/><polyline points="45.73 58.48 43.07 57.59 43.07 59.34 45.73 58.48" style="fill:#fff;"/><polyline points="43.07 59.34 43.07 26.74 42.4 25.9 41.36 59.89 43.07 59.34" style="fill:#fff;"/><path d="M43.5,26.51l17.5,5.92v16.59l.43.54v-19.96l-2.16-.73v.73c0,.38-.31.68-.68.68s-.68-.31-.68-.68v-1.19l-6.18-2.09-2.37.7c-.36.11-.74-.1-.85-.46-.11-.36.1-.74.46-.85l.5-.15-3.68-1.24-2.29.77v1.42" style="fill:#fff;"/><polyline points="61 50.4 61.43 50.26 61.43 49.55 61 49.02 61 50.4" style="fill:#fff;"/><path d="M58.59,45.37c-.15,0-.3.05-.41.14l1.1,1.36v-.82c0-.38-.31-.68-.68-.68" style="fill:#fff;"/><path d="M57.9,46.05v3.44c0,.38.31.68.68.68s.68-.31.68-.68v-2.63l-1.1-1.36c-.17.12-.27.32-.27.55" style="fill:#fff;"/><path d="M30.42,31.29l-7.36,2.4v8.95l7.36-2.44v-8.91M29.05,39.21l-4.63,1.53v-6.06l4.63-1.51v6.03Z" style="fill:#fff;"/><path d="M38.44,28.65l-7.36,2.4v8.95l7.36-2.44v-8.91M37.07,36.57l-4.63,1.53v-6.06l4.63-1.51v6.03Z" style="fill:#fff;"/><polyline points="23.05 52.26 25.17 51.56 23.05 50.85 23.05 52.26" style="fill:#fff;"/><path d="M30.42,40.92l-7.36,2.4v7.54l2.12.71,5.25-1.74v-8.91M29.05,48.84l-4.63,1.53v-6.06l4.63-1.51v6.03Z" style="fill:#fff;"/><path d="M38.44,38.28l-7.36,2.4v8.95l7.36-2.44v-8.91M37.07,46.2l-4.63,1.53v-6.06l4.63-1.51v6.03Z" style="fill:#fff;"/><polyline points="49.47 25.56 51.73 26.32 57.91 24.49 57.91 28.4 59.27 28.86 59.27 22.66 49.47 25.56" style="fill:#fff;"/><path d="M48.97,25.7c-.36.11-.57.49-.46.85.11.36.49.57.85.46l2.37-.7-2.26-.76-.5.15" style="fill:#fff;"/><path d="M57.9,29.59c0,.38.31.68.68.68s.68-.31.68-.68v-.73l-1.37-.46v1.19" style="fill:#fff;"/><path d="M82.71,41.36c0,22.83-18.53,41.36-41.36,41.36S0,64.18,0,41.36,18.53,0,41.36,0s41.36,18.53,41.36,41.36Z" style="fill:none; fill-rule:evenodd;"/><rect x="18.81" y="15.19" width="45.08" height="52.3" style="fill:none;"/></g></svg>