<?xml version="1.0" encoding="UTF-8"?><svg id="uuid-1f587703-9885-4db6-99f9-fb646ff62fb1" xmlns="http://www.w3.org/2000/svg" xmlns:xlink="http://www.w3.org/1999/xlink" viewBox="0 0 222.63 192.32"><defs><clipPath id="uuid-d5fd98e4-dcdc-4485-b673-1a08ac231021"><rect x="67.65" y="35.36" width="87.33" height="121.59" style="fill:none;"/></clipPath><clipPath id="uuid-d3edecd5-1785-484b-9549-ed70a3a10964"><rect x="67.65" y="35.36" width="87.34" height="121.6" style="fill:none;"/></clipPath><clipPath id="uuid-289f4318-580c-4cb0-87d8-16bb622d1018"><polyline points="167.48 0 222.63 95.54 167.48 192.32 55.1 192.32 0 96.5 55.1 0 167.48 0" style="clip-rule:evenodd; fill:none;"/></clipPath><clipPath id="uuid-0e7f8f5c-4ad7-4128-b21d-d6ca099b8811"><rect x="67.65" y="35.36" width="87.34" height="121.6" style="fill:none;"/></clipPath><clipPath id="uuid-150be9ba-f422-4545-b9c0-0b135117e6f9"><polyline points="167.48 0 222.63 95.54 167.48 192.32 55.1 192.32 0 96.5 55.1 0 167.48 0" style="clip-rule:evenodd; fill:none;"/></clipPath></defs><g id="uuid-7d3ef9b4-b867-49e4-9097-c36738486a8e"><polyline points="167.48 0 222.63 95.53 167.48 192.32 55.1 192.32 0 96.5 55.1 0 167.48 0" style="fill:#008aae; fill-rule:evenodd;"/><g style="clip-path:url(#uuid-d5fd98e4-dcdc-4485-b673-1a08ac231021);"><g style="clip-path:url(#uuid-d3edecd5-1785-484b-9549-ed70a3a10964);"><g style="clip-path:url(#uuid-289f4318-580c-4cb0-87d8-16bb622d1018);"><path d="M153.1,156.96h-83.57c-1.04,0-1.88-.84-1.88-1.88v-12.55c0-1.04.84-1.88,1.88-1.88h83.57c1.04,0,1.88.84,1.88,1.88v12.55c0,1.04-.84,1.88-1.88,1.88M71.41,153.19h79.8v-8.78h-79.8v8.78Z" style="fill:#fff;"/></g></g></g><g style="clip-path:url(#uuid-0e7f8f5c-4ad7-4128-b21d-d6ca099b8811);"><g style="clip-path:url(#uuid-150be9ba-f422-4545-b9c0-0b135117e6f9);"><path d="M145.58,144.4c-1.04,0-1.88-.84-1.88-1.88V39.13h-64.76v103.39c0,1.04-.84,1.88-1.88,1.88s-1.88-.84-1.88-1.88V37.24c0-1.04.84-1.88,1.88-1.88h68.53c1.04,0,1.88.84,1.88,1.88v105.27c0,1.04-.84,1.88-1.88,1.88" style="fill:#fff;"/><path d="M133.85,144.41h-45.06c-1.04,0-1.88-.84-1.88-1.88V48.97c0-1.04.84-1.88,1.88-1.88h45.06c1.04,0,1.88.84,1.88,1.88v93.55c0,1.04-.84,1.88-1.88,1.88M90.67,140.64h41.3V50.86h-41.3v89.78Z" style="fill:#fff;"/><path d="M95.91,97.63c-1.04,0-1.88-.84-1.88-1.88v-11.74c0-1.04.84-1.88,1.88-1.88s1.88.84,1.88,1.88v11.74c0,1.04-.84,1.88-1.88,1.88" style="fill:#fff;"/><path d="M118.11,80.3h-13.21c-1.04,0-1.88-.84-1.88-1.88v-20.42c0-1.04.84-1.88,1.88-1.88h13.21c1.04,0,1.88.84,1.88,1.88v20.42c0,1.04-.84,1.88-1.88,1.88M106.79,76.53h9.44v-16.65h-9.44v16.65Z" style="fill:#fff;"/><path d="M118.11,107.62h-13.21c-1.04,0-1.88-.84-1.88-1.88v-20.42c0-1.04.84-1.88,1.88-1.88h13.21c1.04,0,1.88.84,1.88,1.88v20.42c0,1.04-.84,1.88-1.88,1.88M106.79,103.86h9.44v-16.65h-9.44v16.65Z" style="fill:#fff;"/><path d="M118.11,134.95h-13.21c-1.04,0-1.88-.84-1.88-1.88v-20.42c0-1.04.84-1.88,1.88-1.88h13.21c1.04,0,1.88.84,1.88,1.88v20.42c0,1.04-.84,1.88-1.88,1.88M106.79,131.18h9.44v-16.65h-9.44v16.65Z" style="fill:#fff;"/></g></g></g></svg>