<?xml version="1.0" encoding="UTF-8"?><svg id="uuid-c7a402e1-bb0f-462c-9c35-16202068a90a" xmlns="http://www.w3.org/2000/svg" xmlns:xlink="http://www.w3.org/1999/xlink" viewBox="0 0 222.63 192.32"><defs><clipPath id="uuid-ed42b7c0-9ef6-4485-906a-1e8e1b170300"><rect x="67.65" y="35.36" width="87.33" height="121.59" style="fill:none;"/></clipPath><clipPath id="uuid-d5566ad2-36b9-450d-89c6-e904390d6477"><rect x="67.65" y="35.36" width="87.34" height="121.6" style="fill:none;"/></clipPath><clipPath id="uuid-015b8bdb-1424-4f8e-9538-0be7b8aea21f"><polyline points="167.48 0 222.63 95.54 167.48 192.32 55.1 192.32 0 96.5 55.1 0 167.48 0" style="clip-rule:evenodd; fill:none;"/></clipPath><clipPath id="uuid-eba5f348-b38b-4a5e-ab1f-df1552616a25"><rect x="67.65" y="35.36" width="87.34" height="121.6" style="fill:none;"/></clipPath><clipPath id="uuid-4776ce49-9da1-43b9-9fc2-c3fed091fbab"><polyline points="167.48 0 222.63 95.54 167.48 192.32 55.1 192.32 0 96.5 55.1 0 167.48 0" style="clip-rule:evenodd; fill:none;"/></clipPath></defs><g id="uuid-7c0ec8b5-f65a-40cd-aeb6-683ab9bbf257"><polyline points="167.48 0 222.63 95.53 167.48 192.32 55.1 192.32 0 96.5 55.1 0 167.48 0" style="fill:#008aae; fill-rule:evenodd;"/><g style="clip-path:url(#uuid-ed42b7c0-9ef6-4485-906a-1e8e1b170300);"><g style="clip-path:url(#uuid-d5566ad2-36b9-450d-89c6-e904390d6477);"><g style="clip-path:url(#uuid-015b8bdb-1424-4f8e-9538-0be7b8aea21f);"><path d="M153.1,156.96h-83.57c-1.04,0-1.88-.84-1.88-1.88v-12.55c0-1.04.84-1.88,1.88-1.88h83.57c1.04,0,1.88.84,1.88,1.88v12.55c0,1.04-.84,1.88-1.88,1.88M71.42,153.19h79.8v-8.78h-79.8v8.78Z" style="fill:#fff;"/></g></g></g><g style="clip-path:url(#uuid-eba5f348-b38b-4a5e-ab1f-df1552616a25);"><g style="clip-path:url(#uuid-4776ce49-9da1-43b9-9fc2-c3fed091fbab);"><path d="M145.58,144.4c-1.04,0-1.88-.84-1.88-1.88V39.13h-64.76v103.39c0,1.04-.84,1.88-1.88,1.88s-1.88-.84-1.88-1.88V37.24c0-1.04.84-1.88,1.88-1.88h68.53c1.04,0,1.88.84,1.88,1.88v105.27c0,1.04-.84,1.88-1.88,1.88" style="fill:#fff;"/><path d="M133.85,144.41h-45.06c-1.04,0-1.88-.84-1.88-1.88V48.97c0-1.04.84-1.88,1.88-1.88h45.06c1.04,0,1.88.84,1.88,1.88v93.55c0,1.04-.84,1.88-1.88,1.88M90.67,140.64h41.3V50.86h-41.3v89.78Z" style="fill:#fff;"/><path d="M108.17,134.07h-11.7c-1.04,0-1.88-.84-1.88-1.88v-20.42c0-1.04.84-1.88,1.88-1.88h11.7c1.04,0,1.88.84,1.88,1.88v20.42c0,1.04-.84,1.88-1.88,1.88M98.35,130.3h7.94v-16.65h-7.94v16.65Z" style="fill:#fff;"/><path d="M126.25,134.07h-11.71c-1.04,0-1.88-.84-1.88-1.88v-20.42c0-1.04.84-1.88,1.88-1.88h11.71c1.04,0,1.88.84,1.88,1.88v20.42c0,1.04-.84,1.88-1.88,1.88M116.43,130.3h7.94v-16.65h-7.94v16.65Z" style="fill:#fff;"/><path d="M96.73,108.02c-1.04,0-1.88-.84-1.88-1.88v-5.74c0-1.04.84-1.88,1.88-1.88s1.88.84,1.88,1.88v5.74c0,1.04-.84,1.88-1.88,1.88" style="fill:#fff;"/><path d="M125.9,96.52h-29.16c-1.04,0-1.88-.84-1.88-1.88v-23.77c0-9.08,7.39-16.46,16.47-16.46s16.46,7.39,16.46,16.46v23.77c0,1.04-.84,1.88-1.88,1.88M98.62,92.75h25.4v-21.88c0-7-5.7-12.7-12.7-12.7s-12.7,5.7-12.7,12.7v21.88Z" style="fill:#fff;"/></g></g></g></svg>