<?xml version="1.0" encoding="UTF-8"?><svg id="uuid-70d87f7a-f361-423e-9592-8332d7dddfe3" xmlns="http://www.w3.org/2000/svg" xmlns:xlink="http://www.w3.org/1999/xlink" viewBox="0 0 222.63 192.32"><defs><clipPath id="uuid-74c562f6-5889-4988-8629-cc4f3f6d86b5"><rect x="67.65" y="35.36" width="87.33" height="121.59" style="fill:none;"/></clipPath><clipPath id="uuid-2bd5f435-8659-473e-b811-36c76405a649"><rect x="67.65" y="35.36" width="87.34" height="121.6" style="fill:none;"/></clipPath><clipPath id="uuid-9dc5c670-919e-4ca1-94c2-50aac54150c6"><polyline points="167.48 0 222.63 95.54 167.48 192.32 55.1 192.32 0 96.5 55.1 0 167.48 0" style="clip-rule:evenodd; fill:none;"/></clipPath><clipPath id="uuid-15b1b3b7-74d0-4ecc-9478-5ec0332a0c48"><rect x="67.65" y="35.36" width="87.34" height="121.6" style="fill:none;"/></clipPath><clipPath id="uuid-69394012-3769-4056-a0b1-d7a912733f9f"><polyline points="167.48 0 222.63 95.54 167.48 192.32 55.1 192.32 0 96.5 55.1 0 167.48 0" style="clip-rule:evenodd; fill:none;"/></clipPath></defs><g id="uuid-6708af8d-646d-419f-b675-54133fae067f"><polyline points="167.48 0 222.63 95.53 167.48 192.32 55.1 192.32 0 96.5 55.1 0 167.48 0" style="fill:#008aae; fill-rule:evenodd;"/><g style="clip-path:url(#uuid-74c562f6-5889-4988-8629-cc4f3f6d86b5);"><g style="clip-path:url(#uuid-2bd5f435-8659-473e-b811-36c76405a649);"><g style="clip-path:url(#uuid-9dc5c670-919e-4ca1-94c2-50aac54150c6);"><path d="M153.1,156.96h-83.57c-1.04,0-1.88-.84-1.88-1.88v-12.55c0-1.04.84-1.88,1.88-1.88h83.57c1.04,0,1.88.84,1.88,1.88v12.55c0,1.04-.84,1.88-1.88,1.88M71.42,153.19h79.8v-8.78h-79.8v8.78Z" style="fill:#fff;"/></g></g></g><g style="clip-path:url(#uuid-15b1b3b7-74d0-4ecc-9478-5ec0332a0c48);"><g style="clip-path:url(#uuid-69394012-3769-4056-a0b1-d7a912733f9f);"><path d="M145.58,144.4c-1.04,0-1.88-.84-1.88-1.88V39.13h-64.76v103.39c0,1.04-.84,1.88-1.88,1.88s-1.88-.84-1.88-1.88V37.24c0-1.04.84-1.88,1.88-1.88h68.53c1.04,0,1.88.84,1.88,1.88v105.27c0,1.04-.84,1.88-1.88,1.88" style="fill:#fff;"/><path d="M133.85,144.41h-45.06c-1.04,0-1.88-.84-1.88-1.88V48.97c0-1.04.84-1.88,1.88-1.88h45.06c1.04,0,1.88.84,1.88,1.88v93.55c0,1.04-.84,1.88-1.88,1.88M90.67,140.64h41.3V50.86h-41.3v89.78Z" style="fill:#fff;"/><path d="M95.91,97.63c-1.04,0-1.88-.84-1.88-1.88v-11.74c0-1.04.84-1.88,1.88-1.88s1.88.84,1.88,1.88v11.74c0,1.04-.84,1.88-1.88,1.88" style="fill:#fff;"/><path d="M127.07,78.8h-31.2c-1.04,0-1.88-.84-1.88-1.88v-20.42c0-1.04.84-1.88,1.88-1.88h31.2c1.04,0,1.88.84,1.88,1.88v20.42c0,1.04-.84,1.88-1.88,1.88M97.75,75.03h27.44v-16.65h-27.44v16.65Z" style="fill:#fff;"/></g></g></g></svg>