<?xml version="1.0" encoding="UTF-8"?><svg id="uuid-7c6add1b-0936-430d-9b06-216959b18d60" xmlns="http://www.w3.org/2000/svg" xmlns:xlink="http://www.w3.org/1999/xlink" viewBox="0 0 222.63 192.32"><defs><clipPath id="uuid-623a93c8-d1dc-46a3-9c62-a91a32a556fa"><rect x="55.51" y="40.49" width="111.61" height="111.34" style="fill:none;"/></clipPath><clipPath id="uuid-50ee9f19-b598-4668-943c-be47bf5adaf5"><rect x="55.51" y="40.49" width="111.62" height="111.34" style="fill:none;"/></clipPath><clipPath id="uuid-8970a6af-e9f2-49a1-a52f-2663d03ac06b"><polyline points="167.48 0 222.63 95.54 167.48 192.32 55.1 192.32 0 96.5 55.1 0 167.48 0" style="clip-rule:evenodd; fill:none;"/></clipPath><clipPath id="uuid-d4b3db93-c2d1-4f12-9861-ba7a72c75b43"><rect x="55.51" y="40.49" width="111.62" height="111.34" style="fill:none;"/></clipPath><clipPath id="uuid-755c1d3a-6e11-40a0-bc48-51f12ed1f0fe"><polyline points="167.48 0 222.63 95.54 167.48 192.32 55.1 192.32 0 96.5 55.1 0 167.48 0" style="clip-rule:evenodd; fill:none;"/></clipPath></defs><g id="uuid-8390e229-1097-41c7-a039-cba0f07f473a"><polyline points="167.48 0 222.63 95.53 167.48 192.32 55.1 192.32 0 96.5 55.1 0 167.48 0" style="fill:#008aae; fill-rule:evenodd;"/><g style="clip-path:url(#uuid-623a93c8-d1dc-46a3-9c62-a91a32a556fa);"><g style="clip-path:url(#uuid-50ee9f19-b598-4668-943c-be47bf5adaf5);"><g style="clip-path:url(#uuid-8970a6af-e9f2-49a1-a52f-2663d03ac06b);"><path d="M144.6,151.83c-1.04,0-1.88-.84-1.88-1.88V44.26h-62.81v105.69c0,1.04-.84,1.88-1.88,1.88s-1.88-.84-1.88-1.88V42.37c0-1.04.84-1.88,1.88-1.88h66.58c1.04,0,1.88.84,1.88,1.88v107.57c0,1.04-.84,1.88-1.88,1.88" style="fill:#fff;"/><path d="M165.24,151.83H57.39c-1.04,0-1.88-.84-1.88-1.88s.84-1.88,1.88-1.88h107.85c1.04,0,1.88.84,1.88,1.88s-.84,1.88-1.88,1.88" style="fill:#fff;"/><path d="M133.88,151.83c-1.04,0-1.88-.84-1.88-1.88V54.99h-41.35v94.96c0,1.04-.84,1.88-1.88,1.88s-1.89-.84-1.89-1.88V53.1c0-1.04.84-1.88,1.89-1.88h45.12c1.04,0,1.88.84,1.88,1.88v96.84c0,1.04-.84,1.88-1.88,1.88" style="fill:#fff;"/></g></g></g><g style="clip-path:url(#uuid-d4b3db93-c2d1-4f12-9861-ba7a72c75b43);"><g style="clip-path:url(#uuid-755c1d3a-6e11-40a0-bc48-51f12ed1f0fe);"><path d="M125.9,107.81h-29.16c-1.04,0-1.88-.84-1.88-1.88v-29.17c0-9.08,7.39-16.47,16.47-16.47s16.47,7.39,16.47,16.47v29.17c0,1.04-.84,1.88-1.88,1.88M98.62,104.04h25.4v-27.28c0-7-5.7-12.7-12.7-12.7s-12.7,5.7-12.7,12.7v27.28Z" style="fill:#fff;"/><path d="M125.9,143.85h-29.16c-1.04,0-1.88-.84-1.88-1.88v-26.69c0-1.04.84-1.88,1.88-1.88h29.16c1.04,0,1.88.84,1.88,1.88v26.69c0,1.04-.84,1.88-1.88,1.88M98.62,140.08h25.4v-22.92h-25.4v22.92Z" style="fill:#fff;"/></g></g></g></svg>