<?xml version="1.0" encoding="UTF-8"?><svg id="uuid-d2154a2e-7461-469b-9584-0c539a98d3cb" xmlns="http://www.w3.org/2000/svg" xmlns:xlink="http://www.w3.org/1999/xlink" viewBox="0 0 222.63 192.32"><defs><clipPath id="uuid-11abdc75-fb97-44d5-9cb6-c5cded17e806"><rect x="49.15" y="40.25" width="124.33" height="111.82" style="fill:none;"/></clipPath><clipPath id="uuid-85a2b766-453d-4f96-b24f-f212f94e9ee8"><polyline points="167.48 0 222.63 95.53 167.48 192.32 55.1 192.32 0 96.5 55.1 0 167.48 0" style="clip-rule:evenodd; fill:none;"/></clipPath><clipPath id="uuid-e9044cab-565f-4727-a7aa-b9262fa5a95c"><rect x="49.16" y="40.25" width="124.32" height="111.82" style="fill:none;"/></clipPath><clipPath id="uuid-b313847d-8a70-40d7-b7c1-a785b0bdfbb4"><rect x="49.15" y="40.25" width="124.33" height="111.82" style="fill:none;"/></clipPath><clipPath id="uuid-990b4c70-f707-4607-89d3-cdd5ae5205b1"><polyline points="167.48 0 222.63 95.53 167.48 192.32 55.1 192.32 0 96.5 55.1 0 167.48 0" style="clip-rule:evenodd; fill:none;"/></clipPath><clipPath id="uuid-7a112f73-42ce-45c5-beb8-d9d69bd2c9c5"><rect x="49.15" y="40.25" width="124.33" height="111.82" style="fill:none;"/></clipPath><clipPath id="uuid-0f381efd-c75d-449d-b64a-16bc0dd188fc"><polyline points="167.48 0 222.63 95.53 167.48 192.32 55.1 192.32 0 96.5 55.1 0 167.48 0" style="clip-rule:evenodd; fill:none;"/></clipPath></defs><g id="uuid-797d6854-03f4-45d3-a717-628731e52e16"><polyline points="167.48 0 222.63 95.53 167.48 192.32 55.1 192.32 0 96.5 55.1 0 167.48 0" style="fill:#008aae; fill-rule:evenodd;"/><g style="clip-path:url(#uuid-11abdc75-fb97-44d5-9cb6-c5cded17e806);"><g style="clip-path:url(#uuid-85a2b766-453d-4f96-b24f-f212f94e9ee8);"><path d="M163.35,152.07c-1.04,0-1.88-.84-1.88-1.88V44.02H61.17v106.17c0,1.04-.84,1.88-1.88,1.88s-1.88-.84-1.88-1.88V42.13c0-1.04.84-1.88,1.88-1.88h104.07c1.04,0,1.88.84,1.88,1.88v108.05c0,1.04-.84,1.88-1.88,1.88" style="fill:#fff;"/></g></g><g style="clip-path:url(#uuid-e9044cab-565f-4727-a7aa-b9262fa5a95c);"><g style="clip-path:url(#uuid-b313847d-8a70-40d7-b7c1-a785b0bdfbb4);"><g style="clip-path:url(#uuid-990b4c70-f707-4607-89d3-cdd5ae5205b1);"><path d="M171.6,152.07H51.03c-1.04,0-1.88-.84-1.88-1.88s.84-1.88,1.88-1.88h120.56c1.04,0,1.88.84,1.88,1.88s-.84,1.88-1.88,1.88" style="fill:#fff;"/></g></g></g><g style="clip-path:url(#uuid-7a112f73-42ce-45c5-beb8-d9d69bd2c9c5);"><g style="clip-path:url(#uuid-0f381efd-c75d-449d-b64a-16bc0dd188fc);"><path d="M152.95,152.07c-1.04,0-1.88-.84-1.88-1.88V53.4h-80.29v96.78c0,1.04-.84,1.88-1.88,1.88s-1.88-.84-1.88-1.88V51.52c0-1.04.84-1.88,1.88-1.88h84.06c1.04,0,1.88.84,1.88,1.88v98.67c0,1.04-.84,1.88-1.88,1.88" style="fill:#fff;"/><path d="M110.96,152.07c-1.04,0-1.88-.84-1.88-1.88V51.52c0-1.04.84-1.88,1.88-1.88s1.88.84,1.88,1.88v98.67c0,1.04-.84,1.88-1.88,1.88" style="fill:#fff;"/><path d="M102.69,104.43c-1.04,0-1.88-.84-1.88-1.88v-3.66c0-1.04.84-1.88,1.88-1.88s1.88.84,1.88,1.88v3.66c0,1.04-.84,1.88-1.88,1.88" style="fill:#fff;"/><path d="M119.33,104.43c-1.04,0-1.88-.84-1.88-1.88v-3.66c0-1.04.84-1.88,1.88-1.88s1.88.84,1.88,1.88v3.66c0,1.04-.84,1.88-1.88,1.88" style="fill:#fff;"/><path d="M86.6,95.09h-9.6c-1.04,0-1.88-.84-1.88-1.89v-34.03c0-1.04.84-1.88,1.88-1.88h9.6c1.04,0,1.88.84,1.88,1.88v34.03c0,1.04-.84,1.89-1.88,1.89M78.88,91.32h5.84v-30.26h-5.84v30.26Z" style="fill:#fff;"/><path d="M103.56,95.09h-9.6c-1.04,0-1.88-.84-1.88-1.89v-34.03c0-1.04.84-1.88,1.88-1.88h9.6c1.04,0,1.88.84,1.88,1.88v34.03c0,1.04-.84,1.89-1.88,1.89M95.84,91.32h5.84v-30.26h-5.84v30.26Z" style="fill:#fff;"/><path d="M86.6,144.27h-9.6c-1.04,0-1.88-.84-1.88-1.88v-34.03c0-1.04.84-1.88,1.88-1.88h9.6c1.04,0,1.88.84,1.88,1.88v34.03c0,1.04-.84,1.88-1.88,1.88M78.88,140.5h5.84v-30.26h-5.84v30.26Z" style="fill:#fff;"/><path d="M103.56,144.27h-9.6c-1.04,0-1.88-.84-1.88-1.88v-34.03c0-1.04.84-1.88,1.88-1.88h9.6c1.04,0,1.88.84,1.88,1.88v34.03c0,1.04-.84,1.88-1.88,1.88M95.84,140.5h5.84v-30.26h-5.84v30.26Z" style="fill:#fff;"/><path d="M128.11,95.09h-9.6c-1.04,0-1.88-.84-1.88-1.89v-34.03c0-1.04.84-1.88,1.88-1.88h9.6c1.04,0,1.88.84,1.88,1.88v34.03c0,1.04-.84,1.89-1.88,1.89M120.39,91.32h5.84v-30.26h-5.84v30.26Z" style="fill:#fff;"/><path d="M145.07,95.09h-9.6c-1.04,0-1.88-.84-1.88-1.89v-34.03c0-1.04.84-1.88,1.88-1.88h9.6c1.04,0,1.88.84,1.88,1.88v34.03c0,1.04-.84,1.89-1.88,1.89M137.35,91.32h5.84v-30.26h-5.84v30.26Z" style="fill:#fff;"/><path d="M128.11,144.27h-9.6c-1.04,0-1.88-.84-1.88-1.88v-34.03c0-1.04.84-1.88,1.88-1.88h9.6c1.04,0,1.88.84,1.88,1.88v34.03c0,1.04-.84,1.88-1.88,1.88M120.39,140.5h5.84v-30.26h-5.84v30.26Z" style="fill:#fff;"/><path d="M145.07,144.27h-9.6c-1.04,0-1.88-.84-1.88-1.88v-34.03c0-1.04.84-1.88,1.88-1.88h9.6c1.04,0,1.88.84,1.88,1.88v34.03c0,1.04-.84,1.88-1.88,1.88M137.35,140.5h5.84v-30.26h-5.84v30.26Z" style="fill:#fff;"/></g></g></g></svg>