<?xml version="1.0" encoding="UTF-8"?><svg id="uuid-22663add-d7dd-4ee2-b468-f09d9d3e08da" xmlns="http://www.w3.org/2000/svg" xmlns:xlink="http://www.w3.org/1999/xlink" viewBox="0 0 222.63 192.32"><defs><clipPath id="uuid-3cd1c0c8-a12a-4141-ac76-c9d75ddef933"><rect x="55.51" y="40.49" width="111.61" height="111.34" style="fill:none;"/></clipPath><clipPath id="uuid-02b0e26f-b22e-4827-be3c-812acf50e544"><rect x="55.51" y="40.49" width="111.62" height="111.34" style="fill:none;"/></clipPath><clipPath id="uuid-d4928959-3de2-488d-ab14-dec988c0fc15"><polyline points="167.48 0 222.63 95.53 167.48 192.32 55.1 192.32 0 96.5 55.1 0 167.48 0" style="clip-rule:evenodd; fill:none;"/></clipPath><clipPath id="uuid-7c68d0f6-4d98-4ea3-9a39-26fdf35756fa"><rect x="55.51" y="40.49" width="111.62" height="111.34" style="fill:none;"/></clipPath><clipPath id="uuid-482d74b1-ba66-4b5b-9a90-3c4be1a45161"><polyline points="167.48 0 222.63 95.53 167.48 192.32 55.1 192.32 0 96.5 55.1 0 167.48 0" style="clip-rule:evenodd; fill:none;"/></clipPath></defs><g id="uuid-1d833172-3e7b-4921-a358-8aa57563547d"><polyline points="167.48 0 222.63 95.53 167.48 192.32 55.1 192.32 0 96.5 55.1 0 167.48 0" style="fill:#008aae; fill-rule:evenodd;"/><g style="clip-path:url(#uuid-3cd1c0c8-a12a-4141-ac76-c9d75ddef933);"><g style="clip-path:url(#uuid-02b0e26f-b22e-4827-be3c-812acf50e544);"><g style="clip-path:url(#uuid-d4928959-3de2-488d-ab14-dec988c0fc15);"><path d="M144.61,151.83c-1.04,0-1.88-.84-1.88-1.88V44.25h-62.81v105.69c0,1.04-.84,1.88-1.88,1.88s-1.88-.84-1.88-1.88V42.37c0-1.04.84-1.88,1.88-1.88h66.58c1.04,0,1.88.84,1.88,1.88v107.57c0,1.04-.84,1.88-1.88,1.88" style="fill:#fff;"/><path d="M165.24,151.83H57.39c-1.04,0-1.88-.84-1.88-1.88s.84-1.88,1.88-1.88h107.85c1.04,0,1.88.84,1.88,1.88s-.84,1.88-1.88,1.88" style="fill:#fff;"/><path d="M133.88,151.83c-1.04,0-1.88-.84-1.88-1.88V54.99h-41.35v94.96c0,1.04-.84,1.88-1.88,1.88s-1.88-.84-1.88-1.88V53.1c0-1.04.84-1.88,1.88-1.88h45.12c1.04,0,1.88.84,1.88,1.88v96.84c0,1.04-.84,1.88-1.88,1.88" style="fill:#fff;"/></g></g></g><g style="clip-path:url(#uuid-7c68d0f6-4d98-4ea3-9a39-26fdf35756fa);"><g style="clip-path:url(#uuid-482d74b1-ba66-4b5b-9a90-3c4be1a45161);"><path d="M123.72,105.21c-1.04,0-1.88-.84-1.88-1.88v-3.66c0-1.04.84-1.88,1.88-1.88s1.88.84,1.88,1.88v3.66c0,1.04-.84,1.88-1.88,1.88" style="fill:#fff;"/><path d="M107.64,95.87h-9.6c-1.04,0-1.88-.84-1.88-1.88v-34.03c0-1.04.84-1.88,1.88-1.88h9.6c1.04,0,1.88.84,1.88,1.88v34.03c0,1.04-.84,1.88-1.88,1.88M99.92,92.1h5.84v-30.26h-5.84v30.26Z" style="fill:#fff;"/><path d="M124.6,95.87h-9.6c-1.04,0-1.88-.84-1.88-1.88v-34.03c0-1.04.84-1.88,1.88-1.88h9.6c1.04,0,1.88.84,1.88,1.88v34.03c0,1.04-.84,1.88-1.88,1.88M116.88,92.1h5.84v-30.26h-5.84v30.26Z" style="fill:#fff;"/><path d="M107.64,145.05h-9.6c-1.04,0-1.88-.84-1.88-1.88v-34.03c0-1.04.84-1.88,1.88-1.88h9.6c1.04,0,1.88.84,1.88,1.88v34.03c0,1.04-.84,1.88-1.88,1.88M99.92,141.28h5.84v-30.26h-5.84v30.26Z" style="fill:#fff;"/><path d="M124.6,145.05h-9.6c-1.04,0-1.88-.84-1.88-1.88v-34.03c0-1.04.84-1.88,1.88-1.88h9.6c1.04,0,1.88.84,1.88,1.88v34.03c0,1.04-.84,1.88-1.88,1.88M116.88,141.28h5.84v-30.26h-5.84v30.26Z" style="fill:#fff;"/></g></g></g></svg>