<?xml version="1.0" encoding="UTF-8"?><svg id="uuid-360fead6-8dad-43ce-961f-7459605ce4ae" xmlns="http://www.w3.org/2000/svg" xmlns:xlink="http://www.w3.org/1999/xlink" viewBox="0 0 222.63 192.32"><defs><clipPath id="uuid-55f0eb65-f13f-4d86-8069-dfca497db93a"><rect x="57.4" y="40.25" width="107.83" height="111.82" style="fill:none;"/></clipPath><clipPath id="uuid-f60e1cd6-fd36-45af-8f47-d2d55e070c4c"><rect x="57.4" y="40.25" width="107.84" height="111.82" style="fill:none;"/></clipPath><clipPath id="uuid-acc44980-fbfc-4e22-9922-01749a7b8f4d"><polyline points="167.48 0 222.63 95.53 167.48 192.32 55.1 192.32 0 96.5 55.1 0 167.48 0" style="clip-rule:evenodd; fill:none;"/></clipPath><clipPath id="uuid-1fc53de0-a75f-4a4b-b06f-cfc2cf1822c2"><rect x="57.4" y="40.25" width="107.84" height="111.82" style="fill:none;"/></clipPath><clipPath id="uuid-68e32146-97aa-4c09-b32f-b28d9c233e0e"><polyline points="167.48 0 222.63 95.53 167.48 192.32 55.1 192.32 0 96.5 55.1 0 167.48 0" style="clip-rule:evenodd; fill:none;"/></clipPath></defs><g id="uuid-9f79ccf2-3720-4056-b7a7-f4f4857be8df"><polyline points="167.48 0 222.63 95.53 167.48 192.32 55.1 192.32 0 96.5 55.1 0 167.48 0" style="fill:#008aae; fill-rule:evenodd;"/><g style="clip-path:url(#uuid-55f0eb65-f13f-4d86-8069-dfca497db93a);"><g style="clip-path:url(#uuid-f60e1cd6-fd36-45af-8f47-d2d55e070c4c);"><g style="clip-path:url(#uuid-acc44980-fbfc-4e22-9922-01749a7b8f4d);"><path d="M163.35,152.07c-1.04,0-1.88-.84-1.88-1.88V44.02H61.17v106.17c0,1.04-.84,1.88-1.88,1.88s-1.88-.84-1.88-1.88V42.13c0-1.04.84-1.88,1.88-1.88h104.07c1.04,0,1.88.84,1.88,1.88v108.05c0,1.04-.84,1.88-1.88,1.88" style="fill:#fff;"/></g></g></g><g style="clip-path:url(#uuid-1fc53de0-a75f-4a4b-b06f-cfc2cf1822c2);"><g style="clip-path:url(#uuid-68e32146-97aa-4c09-b32f-b28d9c233e0e);"><path d="M161.81,152.07H60c-.88,0-1.59-.84-1.59-1.88s.71-1.88,1.59-1.88h101.81c.88,0,1.59.84,1.59,1.88s-.71,1.88-1.59,1.88" style="fill:#fff;"/><path d="M94.68,135c5.67,0,10.27-4.61,10.27-10.27v-32.9c19.45-2.79,28.5,1.8,31.76,3.46.76.38,1.58.57,2.39.57,1.3,0,2.6-.48,3.59-1.39l3-2.76c.49-.45.73-1.12.64-1.77-.09-.66-.49-1.23-1.08-1.53-6.42-3.32-17.38-6.99-40.3-3.41v-18.47c0-5.66-4.61-10.27-10.27-10.27s-10.27,4.61-10.27,10.27v58.21c0,5.67,4.61,10.27,10.27,10.27M144.63,89.61c.2.1.33.28.36.5.03.22-.05.44-.22.59l-3,2.76c-1.2,1.11-2.99,1.35-4.45.61-3.64-1.85-14.28-7.26-37.73-2.73-.22-1.53-1.13-2.82-2.41-3.57,28.08-5.77,40.5-1.76,47.45,1.83ZM98.31,92.07c0,2-1.63,3.64-3.64,3.64s-3.64-1.63-3.64-3.64,1.63-3.64,3.64-3.64,3.64,1.63,3.64,3.64ZM85.76,66.52c0-4.92,4-8.92,8.91-8.92s8.92,4,8.92,8.92v18.69c-3.08.51-6.36,1.14-9.88,1.92-.09.02-.18.06-.25.11-2.17.54-3.78,2.49-3.78,4.83,0,2.75,2.24,4.99,4.99,4.99,2.53,0,4.6-1.89,4.93-4.33,1.38-.27,2.7-.5,3.99-.7v32.7c0,4.92-4,8.92-8.92,8.92s-8.91-4-8.91-8.92v-58.21Z" style="fill:#fff;"/><path d="M85.76,66.52c0-4.92,4-8.92,8.91-8.92s8.92,4,8.92,8.92v18.69c-3.08.51-6.36,1.14-9.88,1.92-.09.02-.18.06-.25.11-2.17.54-3.78,2.49-3.78,4.83,0,2.75,2.24,4.99,4.99,4.99,2.53,0,4.6-1.89,4.93-4.33,1.38-.27,2.7-.5,3.99-.7v32.7c0,4.92-4,8.92-8.92,8.92s-8.91-4-8.91-8.92v-58.21Z" style="fill:none; stroke:#fff; stroke-miterlimit:10; stroke-width:2.1px;"/><path d="M98.31,92.07c0,2-1.63,3.64-3.63,3.64s-3.64-1.63-3.64-3.64,1.63-3.64,3.64-3.64,3.63,1.63,3.63,3.64Z" style="fill:none; stroke:#fff; stroke-miterlimit:10; stroke-width:2.1px;"/><path d="M144.63,89.61c.2.1.33.28.36.5.03.22-.05.44-.22.59l-3,2.76c-1.2,1.11-2.99,1.35-4.44.61-3.64-1.85-14.28-7.26-37.73-2.73-.22-1.53-1.13-2.82-2.41-3.57,28.08-5.77,40.5-1.76,47.45,1.83Z" style="fill:none; stroke:#fff; stroke-miterlimit:10; stroke-width:2.1px;"/><path d="M94.68,135c5.66,0,10.27-4.61,10.27-10.27v-32.9c19.45-2.79,28.5,1.8,31.76,3.46.76.38,1.58.57,2.39.57,1.3,0,2.59-.48,3.59-1.39l3-2.76c.49-.45.73-1.12.64-1.78-.09-.65-.49-1.23-1.08-1.53-6.42-3.32-17.38-6.98-40.3-3.41v-18.47c0-5.66-4.61-10.27-10.27-10.27s-10.27,4.61-10.27,10.27v58.21c0,5.66,4.61,10.27,10.27,10.27Z" style="fill:none; stroke:#fff; stroke-miterlimit:10; stroke-width:2.1px;"/><path d="M90.51,67.2c.38,0,.68-.3.68-.68,0-1.92,1.56-3.48,3.48-3.48s3.48,1.56,3.48,3.48c0,.38.3.68.68.68s.68-.3.68-.68c0-2.67-2.17-4.84-4.84-4.84s-4.84,2.17-4.84,4.84c0,.38.3.68.68.68" style="fill:#fff;"/><path d="M90.51,67.2c.38,0,.68-.3.68-.68,0-1.92,1.56-3.48,3.48-3.48s3.48,1.56,3.48,3.48c0,.38.3.68.68.68s.68-.3.68-.68c0-2.67-2.17-4.84-4.84-4.84s-4.84,2.17-4.84,4.84c0,.38.3.68.68.68Z" style="fill:none; stroke:#fff; stroke-miterlimit:10; stroke-width:2.1px;"/><path d="M90.51,123.45c.38,0,.68.3.68.68,0,1.92,1.56,3.48,3.48,3.48s3.48-1.56,3.48-3.48c0-.38.3-.68.68-.68s.68.3.68.68c0,2.67-2.17,4.84-4.84,4.84s-4.84-2.17-4.84-4.84c0-.38.3-.68.68-.68" style="fill:#fff;"/><path d="M90.51,123.45c.38,0,.68.3.68.68,0,1.92,1.56,3.48,3.48,3.48s3.48-1.56,3.48-3.48c0-.38.3-.68.68-.68s.68.3.68.68c0,2.67-2.17,4.84-4.84,4.84s-4.84-2.17-4.84-4.84c0-.38.3-.68.68-.68Z" style="fill:none; stroke:#fff; stroke-miterlimit:10; stroke-width:2.1px;"/></g></g></g></svg>