<?xml version="1.0" encoding="UTF-8"?><svg id="uuid-590d944e-584d-4217-a9db-dcab56b13628" xmlns="http://www.w3.org/2000/svg" xmlns:xlink="http://www.w3.org/1999/xlink" viewBox="0 0 222.63 192.32"><defs><clipPath id="uuid-ff3a14a2-f877-4b9d-80ee-382afe6cfbdf"><rect x="57.4" y="40.25" width="107.83" height="111.82" style="fill:none;"/></clipPath><clipPath id="uuid-6ae8415a-4868-4197-bc02-fc9800c3a9bb"><rect x="57.4" y="40.25" width="107.84" height="111.82" style="fill:none;"/></clipPath><clipPath id="uuid-05af8360-fb23-4616-a054-d58163776c39"><polyline points="167.48 0 222.63 95.53 167.48 192.32 55.1 192.32 0 96.5 55.1 0 167.48 0" style="clip-rule:evenodd; fill:none;"/></clipPath><clipPath id="uuid-639390a5-62d7-4072-b315-0df8fd3774c3"><rect x="57.4" y="40.25" width="107.84" height="111.82" style="fill:none;"/></clipPath><clipPath id="uuid-dc419ef1-3e80-454d-a109-7d1c82e3da99"><polyline points="167.48 0 222.63 95.53 167.48 192.32 55.1 192.32 0 96.5 55.1 0 167.48 0" style="clip-rule:evenodd; fill:none;"/></clipPath></defs><g id="uuid-72068f73-4e86-4c22-8f17-f3d967d58450"><polyline points="167.48 0 222.63 95.53 167.48 192.32 55.1 192.32 0 96.5 55.1 0 167.48 0" style="fill:#008aae; fill-rule:evenodd;"/><g style="clip-path:url(#uuid-ff3a14a2-f877-4b9d-80ee-382afe6cfbdf);"><g style="clip-path:url(#uuid-6ae8415a-4868-4197-bc02-fc9800c3a9bb);"><g style="clip-path:url(#uuid-05af8360-fb23-4616-a054-d58163776c39);"><path d="M163.35,152.07c-1.04,0-1.88-.84-1.88-1.88V44.02H61.16v106.17c0,1.04-.84,1.88-1.88,1.88s-1.88-.84-1.88-1.88V42.13c0-1.04.84-1.88,1.88-1.88h104.07c1.04,0,1.88.84,1.88,1.88v108.05c0,1.04-.84,1.88-1.88,1.88" style="fill:#fff;"/></g></g></g><g style="clip-path:url(#uuid-639390a5-62d7-4072-b315-0df8fd3774c3);"><g style="clip-path:url(#uuid-dc419ef1-3e80-454d-a109-7d1c82e3da99);"><path d="M161.81,152.07H60c-.88,0-1.59-.84-1.59-1.88s.71-1.88,1.59-1.88h101.81c.88,0,1.59.84,1.59,1.88s-.71,1.88-1.59,1.88" style="fill:#fff;"/><path d="M67.2,46.76c-1.04,0-1.88.84-1.88,1.88v94.77c0,1.04.84,1.88,1.88,1.88s1.88-.84,1.88-1.88V48.64c0-1.04-.84-1.88-1.88-1.88" style="fill:#fff;"/><path d="M74.54,46.76c-1.04,0-1.88.84-1.88,1.88v94.77c0,1.04.84,1.88,1.88,1.88s1.88-.84,1.88-1.88V48.64c0-1.04-.84-1.88-1.88-1.88" style="fill:#fff;"/><path d="M83.77,48.64c0-1.04-.84-1.88-1.88-1.88s-1.88.84-1.88,1.88v24.29h3.77v-24.29" style="fill:#fff;"/><path d="M80.01,143.41c0,1.04.84,1.88,1.88,1.88s1.88-.84,1.88-1.88v-25.37h-3.77v25.37" style="fill:#fff;"/><path d="M91.12,48.64c0-1.04-.84-1.88-1.88-1.88s-1.88.84-1.88,1.88v24.29h3.77v-24.29" style="fill:#fff;"/><path d="M87.35,143.41c0,1.04.84,1.88,1.88,1.88s1.88-.84,1.88-1.88v-25.37h-3.77v25.37" style="fill:#fff;"/><path d="M94.7,143.41c0,1.04.84,1.88,1.88,1.88s1.88-.84,1.88-1.88v-25.37h-3.77v25.37" style="fill:#fff;"/><path d="M98.46,48.64c0-1.04-.84-1.88-1.88-1.88s-1.88.84-1.88,1.88v24.29h3.77v-24.29" style="fill:#fff;"/><path d="M105.81,48.64c0-1.04-.84-1.88-1.88-1.88s-1.88.84-1.88,1.88v24.29h3.77v-24.29" style="fill:#fff;"/><path d="M102.04,143.41c0,1.04.84,1.88,1.88,1.88s1.88-.84,1.88-1.88v-25.37h-3.77v25.37" style="fill:#fff;"/><path d="M113.15,48.64c0-1.04-.84-1.88-1.88-1.88s-1.88.84-1.88,1.88v24.29h3.77v-24.29" style="fill:#fff;"/><path d="M109.39,143.41c0,1.04.84,1.88,1.88,1.88s1.88-.84,1.88-1.88v-25.37h-3.77v25.37" style="fill:#fff;"/><path d="M120.5,48.64c0-1.04-.84-1.88-1.88-1.88s-1.88.84-1.88,1.88v24.29h3.77v-24.29" style="fill:#fff;"/><path d="M116.73,143.41c0,1.04.84,1.88,1.88,1.88s1.88-.84,1.88-1.88v-25.37h-3.77v25.37" style="fill:#fff;"/><path d="M127.85,48.64c0-1.04-.84-1.88-1.88-1.88s-1.88.84-1.88,1.88v24.29h3.77v-24.29" style="fill:#fff;"/><path d="M124.08,143.41c0,1.04.84,1.88,1.88,1.88s1.88-.84,1.88-1.88v-25.37h-3.77v25.37" style="fill:#fff;"/><path d="M135.19,48.64c0-1.04-.84-1.88-1.88-1.88s-1.88.84-1.88,1.88v24.29h3.77v-24.29" style="fill:#fff;"/><path d="M131.42,143.41c0,1.04.84,1.88,1.88,1.88s1.88-.84,1.88-1.88v-25.37h-3.77v25.37" style="fill:#fff;"/><path d="M142.54,48.64c0-1.04-.84-1.88-1.88-1.88s-1.88.84-1.88,1.88v24.29h3.77v-24.29" style="fill:#fff;"/><path d="M138.77,143.41c0,1.04.84,1.88,1.88,1.88s1.88-.84,1.88-1.88v-25.37h-3.77v25.37" style="fill:#fff;"/><path d="M148,46.76c-1.04,0-1.88.84-1.88,1.88v94.77c0,1.04.84,1.88,1.88,1.88s1.88-.84,1.88-1.88V48.64c0-1.04-.84-1.88-1.88-1.88" style="fill:#fff;"/><path d="M155.34,46.76c-1.04,0-1.88.84-1.88,1.88v94.77c0,1.04.84,1.88,1.88,1.88s1.88-.84,1.88-1.88V48.64c0-1.04-.84-1.88-1.88-1.88" style="fill:#fff;"/><path d="M138.99,78.19h-57v33.44h58.65v-33.44h-1.65M139.71,110.68h-56.78v-31.54h56.78v31.54Z" style="fill:#fff;"/><path d="M138.99,78.19h-57v33.44h58.65v-33.44h-1.65M139.71,110.68h-56.78v-31.54h56.78v31.54Z" style="fill:#fff;"/><path d="M142.18,76.54h-61.88v36.56h22.27c.02.6.23,1.16.56,1.6.21.28.46.51.76.69.25.16.53.27.83.33.17.04.36.06.54.06h10.91c.08,0,.17,0,.25-.01.58-.05,1.11-.3,1.53-.68.13-.12.25-.25.36-.39.22-.29.38-.63.47-.99.05-.2.08-.4.09-.61h23.48v-36.56h-.16M140.64,111.63h-58.65v-33.44h58.65v33.44Z" style="fill:#fff;"/></g></g></g></svg>