<?xml version="1.0" encoding="UTF-8"?><svg id="uuid-c77a92ce-78c3-4f0f-95c6-f3579a918a3f" xmlns="http://www.w3.org/2000/svg" viewBox="0 0 55.23 43.84"><g id="uuid-5abd2c5d-73d1-4367-8c9d-137db083fe2a"><polyline points="41.55 0 55.23 21.78 41.55 43.84 13.67 43.84 0 22 13.67 0 41.55 0" style="fill:#008aae; fill-rule:evenodd;"/><path d="M33.95,36.34h-12.62c-1.16,0-2.1-.94-2.1-2.1V8.99c0-1.16.94-2.1,2.1-2.1h12.62c1.16,0,2.1.95,2.1,2.1v25.25c0,1.16-.94,2.1-2.1,2.1M21.32,7.94c-.58,0-1.05.47-1.05,1.05v25.25c0,.58.47,1.05,1.05,1.05h12.62c.58,0,1.05-.47,1.05-1.05V8.99c0-.58-.47-1.05-1.05-1.05h-12.62Z" style="fill:#fff;"/><path d="M28.69,10.04h-2.1c-.29,0-.53-.23-.53-.53s.24-.53.53-.53h2.1c.29,0,.53.24.53.53s-.23.53-.53.53" style="fill:#fff;"/><path d="M31.05,10.04h-.53c-.29,0-.53-.23-.53-.53s.24-.53.53-.53h.53c.29,0,.53.24.53.53s-.24.53-.53.53" style="fill:#fff;"/><path d="M35.53,33.18h-15.78c-.29,0-.53-.24-.53-.53s.24-.53.53-.53h15.78c.29,0,.53.24.53.53s-.24.53-.53.53" style="fill:#fff;"/></g></svg>