<?xml version="1.0" encoding="UTF-8"?><svg id="uuid-d647c65d-f14c-4223-b595-815a1b4b15a5" xmlns="http://www.w3.org/2000/svg" xmlns:xlink="http://www.w3.org/1999/xlink" viewBox="0 0 50.27 54.2"><defs><clipPath id="uuid-22dfb17b-5324-4d76-b596-e86b19fdfaa3"><rect width="50.27" height="54.2" style="fill:none;"/></clipPath><clipPath id="uuid-8e0cddef-9e72-4a66-ba30-96d05414e01c"><path d="M66.48,27.11c0,22.83-18.53,41.36-41.36,41.36S-16.23,49.94-16.23,27.11,2.3-14.24,25.13-14.24,66.48,4.28,66.48,27.11" style="clip-rule:evenodd; fill:none;"/></clipPath></defs><g id="uuid-a6d8419b-1b43-4226-a77f-da95ee306eb2"><g style="clip-path:url(#uuid-22dfb17b-5324-4d76-b596-e86b19fdfaa3);"><g style="clip-path:url(#uuid-8e0cddef-9e72-4a66-ba30-96d05414e01c);"><path d="M39.09,38.49h-2.26c-.6,0-1.09.49-1.09,1.09v2.33c0,.6.49,1.09,1.09,1.09h2.26c.6,0,1.09-.49,1.09-1.09v-2.33c0-.6-.49-1.09-1.09-1.09M44.87,38.49h-2.27c-.6,0-1.09.49-1.09,1.09v8.75c0,.6.49,1.09,1.09,1.09h2.27c.6,0,1.09-.49,1.09-1.09v-8.75c0-.6-.49-1.09-1.09-1.09ZM39.09,44.86h-2.26c-.6,0-1.09.49-1.09,1.09v2.33c0,.6.49,1.09,1.09,1.09h2.26c.6,0,1.09-.49,1.09-1.09v-2.33c0-.6-.49-1.09-1.09-1.09ZM33.31,38.49h-2.26c-.6,0-1.09.49-1.09,1.09v2.33c0,.6.49,1.09,1.09,1.09h2.26c.6,0,1.09-.49,1.09-1.09v-2.33c0-.6-.49-1.09-1.09-1.09ZM33.31,44.86h-2.26c-.6,0-1.09.49-1.09,1.09v2.33c0,.6.49,1.09,1.09,1.09h2.26c.6,0,1.09-.49,1.09-1.09v-2.33c0-.6-.49-1.09-1.09-1.09ZM31.1,35.49h13.66c.6,0,1.09-.49,1.09-1.09v-3.36c0-.6-.49-1.09-1.09-1.09h-13.66c-.6,0-1.09.49-1.09,1.09v3.36c0,.6.49,1.09,1.09,1.09ZM35.7,30.76c.16.15.16.41,0,.56l-3.18,3.26c-.08.08-.18.12-.28.12s-.2-.04-.28-.11c-.16-.15-.16-.4,0-.56l3.18-3.26c.15-.16.41-.16.56,0ZM30.91,32.34l1.26-1.26c.16-.16.41-.16.56,0,.16.16.16.41,0,.56l-1.26,1.26c-.08.08-.18.12-.28.12s-.2-.04-.28-.12c-.16-.16-.16-.41,0-.56ZM45.77,25.73h-15.68c-2.49,0-4.51,2.02-4.51,4.51v19.46c0,2.49,2.02,4.51,4.51,4.51h15.68c2.48,0,4.51-2.02,4.51-4.51v-19.46c0-2.48-2.02-4.51-4.51-4.51ZM47.96,49.79c0,1.15-.94,2.08-2.09,2.08h-15.9c-1.15,0-2.09-.93-2.09-2.08v-19.66c0-1.15.94-2.08,2.09-2.08h15.9c1.15,0,2.09.93,2.09,2.08v19.66Z" style="fill:#fff;"/><path d="M7.61,32.11c0,.65.53,1.17,1.17,1.17h13.91v-2.35h-13.91c-.65,0-1.17.53-1.17,1.17M0,3.59v42.66c0,1.98,1.61,3.59,3.59,3.59h19.35s0-.09,0-.14v-2.89H3.59c-.31,0-.56-.25-.56-.56V3.59c0-.31.25-.56.56-.56h28.15c.31,0,.56.25.56.56v19.47h3.03V3.59c0-1.98-1.61-3.59-3.59-3.59H3.59C1.61,0,0,1.61,0,3.59ZM8.78,25.63h15.58c.54-.58.58-.64,1.21-1.14.63-.5,1.35-.8,1.35-.8,0,0-.12-.12-.24-.21-.19-.13-.41-.2-.65-.2H8.78c-.65,0-1.17.53-1.17,1.17s.53,1.17,1.17,1.17ZM7.61,39.75c0,.65.53,1.17,1.17,1.17h13.91v-2.35h-13.91c-.65,0-1.17.53-1.17,1.17ZM27.21,16.82c0-.65-.53-1.17-1.17-1.17H8.78c-.65,0-1.17.53-1.17,1.17s.53,1.17,1.17,1.17h17.26c.65,0,1.17-.53,1.17-1.17ZM27.21,9.86c0-.65-.53-1.17-1.17-1.17H8.78c-.65,0-1.17.53-1.17,1.17s.53,1.17,1.17,1.17h17.26c.65,0,1.17-.53,1.17-1.17Z" style="fill:#fff;"/></g></g></g></svg>