<?xml version="1.0" encoding="UTF-8"?><svg id="uuid-f214ea56-91ea-4e76-928a-a161e4a0a5ae" xmlns="http://www.w3.org/2000/svg" xmlns:xlink="http://www.w3.org/1999/xlink" viewBox="0 0 82.71 82.71"><defs><clipPath id="uuid-2fff43de-f410-4abb-a74a-5f3b73710f38"><rect x="12.37" y="15.55" width="57.97" height="51.62" style="fill:none;"/></clipPath><clipPath id="uuid-1b56143d-88d3-4bb5-8983-ef842186c270"><rect width="82.71" height="82.71" style="fill:none;"/></clipPath></defs><g id="uuid-ce21cb63-400f-4b0a-9d9a-f1af1d964dbd"><g style="clip-path:url(#uuid-2fff43de-f410-4abb-a74a-5f3b73710f38);"><g style="clip-path:url(#uuid-1b56143d-88d3-4bb5-8983-ef842186c270);"><rect x="13.54" y="56.34" width="55.63" height="9.83" rx="3.27" ry="3.27" style="fill:none; stroke:#fff; stroke-linecap:round; stroke-linejoin:round; stroke-width:2px;"/><path d="M49.04,43.21c0,4.25-3.44,7.69-7.69,7.69s-7.69-3.44-7.69-7.69,3.44-7.69,7.69-7.69,7.69,3.44,7.69,7.69Z" style="fill:none; stroke:#fff; stroke-linecap:round; stroke-linejoin:round; stroke-width:2px;"/><path d="M59.56,37.82l6.59,2.11c.42.09.91.11,1.31.06.41-.04.8-.22,1.1-.6.44-.39.65-.96.71-1.66l.06-9.63c.02-.48-.1-.95-.22-1.42-.3-.86-1.01-1.68-1.4-2.12s-1.07-.98-1.9-1.65c-.89-.59-2-1.36-3.45-2.03-1.39-.74-3.1-1.38-5.03-2.07-1.99-.61-4.25-1.19-6.91-1.59-2.66-.4-5.7-.62-9.01-.68-4.27-.09-8.01.25-11.11.86-3.1.61-5.69,1.37-7.87,2.23-2.1.92-3.73,1.71-4.94,2.6-1.21.89-2.47,1.99-3.15,2.68-.3.38-.53.81-.74,1.39-.15.5-.3,1-.19,1.46l-.06,9.63c-.05.83.3,1.48.9,1.96.19.53.89.59,1.76.43l7.28-1.82" style="fill:none; stroke:#fff; stroke-linecap:round; stroke-linejoin:round; stroke-width:2px;"/><path d="M56.87,25.63h-8.26c0,2.13-1.74,3.87-3.87,3.87h-6.77c-2.13,0-3.87-1.74-3.87-3.87h-7.93l-7.1,30.7h44.57l-6.77-30.7Z" style="fill:none; stroke:#fff; stroke-linecap:round; stroke-linejoin:round; stroke-width:2px;"/></g></g></g></svg>