<?xml version="1.0" encoding="UTF-8"?><svg id="uuid-807435a4-9bf0-4772-b3ad-5a44f5c84e03" xmlns="http://www.w3.org/2000/svg" xmlns:xlink="http://www.w3.org/1999/xlink" viewBox="0 0 82.71 82.71"><defs><clipPath id="uuid-2eb2744f-f1ef-43b4-a503-a5f7a3fc6512"><rect x="18.82" y="15.19" width="45.08" height="52.3" style="fill:none;"/></clipPath><clipPath id="uuid-7e4800b8-ce3e-482e-a8bc-905d41104a66"><path d="M82.71,41.36c0,22.83-18.53,41.36-41.36,41.36S0,64.18,0,41.36,18.53,0,41.36,0s41.36,18.53,41.36,41.36" style="clip-rule:evenodd; fill:none;"/></clipPath></defs><g id="uuid-48f0ba70-286e-4591-ac60-13b6417140e3"><g style="clip-path:url(#uuid-2eb2744f-f1ef-43b4-a503-a5f7a3fc6512);"><g style="clip-path:url(#uuid-7e4800b8-ce3e-482e-a8bc-905d41104a66);"><polyline points="21.27 19.03 36.91 24.32 39.64 23.4 39.64 23.38 41.35 22.8 18.82 15.19 18.82 30.43 21.27 29.6 21.27 19.03" style="fill:#fff;"/><polyline points="41.35 59.9 39.64 60.45 39.64 59.34 36.98 58.48 21.71 63.6 21.71 53.54 18.82 52.61 18.82 67.5 41.35 60.05 41.36 59.9 41.35 59.9" style="fill:#fff;"/><polyline points="21.71 50.4 21.27 50.26 21.27 29.6 18.82 30.43 18.82 52.61 21.71 53.54 21.71 50.4" style="fill:#fff;"/><polyline points="36.98 58.48 39.64 59.34 39.64 57.6 36.98 58.48" style="fill:#fff;"/><polyline points="39.21 26.51 39.64 26.36 39.64 23.4 36.92 24.32 39.21 25.09 39.21 26.51" style="fill:#fff;"/><polyline points="41.35 59.9 41.36 59.9 41.36 59.9 41.35 59.9" style="fill:#fff;"/><polyline points="39.21 26.51 39.21 25.09 36.92 24.32 21.27 29.6 21.27 50.26 21.71 50.4 21.71 32.43 39.21 26.51" style="fill:#fff;"/><polyline points="41.35 22.8 43.07 23.38 43.07 23.4 45.79 24.32 61.44 19.03 61.44 29.6 63.89 30.43 63.89 15.2 41.35 22.8" style="fill:#fff;"/><polyline points="39.64 23.4 40.23 23.2 42.4 25.91 42.49 23.2 43.07 23.4 43.07 23.38 41.36 22.8 39.64 23.38 39.64 23.4" style="fill:#fff;"/><polyline points="39.64 60.45 41.36 59.9 39.64 59.34 39.64 60.45" style="fill:#fff;"/><polyline points="42.4 25.91 40.22 23.2 39.64 23.4 39.64 59.34 41.35 59.9 41.36 59.9 42.4 25.91" style="fill:#fff;"/><polyline points="61.01 63.6 45.91 58.55 43.07 59.48 43.07 60.45 41.59 59.97 41.36 60.05 63.9 67.5 63.9 52.61 61.01 53.56 61.01 63.6" style="fill:#fff;"/><polyline points="43.07 60.45 43.07 59.48 41.59 59.97 43.07 60.45" style="fill:#fff;"/><polyline points="41.36 59.9 41.35 60.05 41.59 59.97 41.36 59.9" style="fill:#fff;"/><polyline points="61.01 53.56 63.9 52.61 61.01 53.54 61.01 53.56" style="fill:#fff;"/><polyline points="43.07 59.34 43.07 59.48 45.91 58.55 45.73 58.48 43.07 59.34" style="fill:#fff;"/><polyline points="41.36 59.9 41.36 59.9 41.59 59.97 43.07 59.48 43.07 59.34 41.36 59.9" style="fill:#fff;"/><polyline points="61.44 49.55 63.89 52.61 63.89 30.43 61.44 29.6 61.44 49.55" style="fill:#fff;"/><polyline points="43.51 26.51 43.51 25.09 45.79 24.32 43.07 23.4 43.07 26.36 43.51 26.51" style="fill:#fff;"/><polyline points="42.4 25.91 43.07 26.74 43.07 23.4 42.49 23.2 42.4 25.91" style="fill:#fff;"/><polyline points="61.44 50.26 61 50.41 61 53.54 63.89 52.61 61.44 49.55 61.44 50.26" style="fill:#fff;"/><polyline points="45.73 58.48 43.07 57.6 43.07 59.34 45.73 58.48" style="fill:#fff;"/><polyline points="43.07 59.34 43.07 26.74 42.4 25.91 41.36 59.9 43.07 59.34" style="fill:#fff;"/><path d="M43.51,26.51l17.5,5.92v16.59l.43.54v-19.96l-2.16-.73v.73c0,.38-.31.68-.68.68s-.68-.31-.68-.68v-1.19l-6.18-2.08-2.37.7c-.36.11-.74-.1-.85-.46-.11-.36.1-.74.46-.85l.5-.15-3.68-1.24-2.29.77v1.42" style="fill:#fff;"/><polyline points="61.01 50.4 61.44 50.26 61.44 49.55 61.01 49.02 61.01 50.4" style="fill:#fff;"/><path d="M58.59,45.37c-.15,0-.3.05-.41.14l1.1,1.36v-.82c0-.38-.31-.69-.68-.69" style="fill:#fff;"/><path d="M57.91,46.05v3.45c0,.38.31.68.68.68s.68-.31.68-.68v-2.63l-1.1-1.36c-.17.12-.27.32-.27.55" style="fill:#fff;"/><path d="M30.42,31.29l-7.36,2.4v8.95l7.36-2.44v-8.91M29.05,39.21l-4.63,1.53v-6.06l4.63-1.51v6.03Z" style="fill:#fff;"/><path d="M38.44,28.65l-7.36,2.4v8.95l7.36-2.44v-8.91M37.07,36.57l-4.63,1.53v-6.06l4.63-1.51v6.03Z" style="fill:#fff;"/><polyline points="23.05 52.27 25.17 51.56 23.05 50.86 23.05 52.27" style="fill:#fff;"/><path d="M30.42,40.92l-7.36,2.4v7.54l2.12.71,5.25-1.74v-8.91M29.05,48.84l-4.63,1.53v-6.06l4.63-1.51v6.03Z" style="fill:#fff;"/><path d="M38.44,38.28l-7.36,2.4v8.95l7.36-2.44v-8.91M37.07,46.2l-4.63,1.53v-6.06l4.63-1.51v6.03Z" style="fill:#fff;"/><polyline points="49.47 25.56 51.73 26.32 57.91 24.49 57.91 28.4 59.28 28.87 59.28 22.66 49.47 25.56" style="fill:#fff;"/><path d="M48.98,25.7c-.36.11-.57.49-.46.85.11.36.49.57.85.46l2.37-.7-2.26-.76-.5.15" style="fill:#fff;"/><path d="M57.91,29.6c0,.38.31.69.68.69s.68-.31.68-.69v-.73l-1.37-.46v1.19" style="fill:#fff;"/></g></g></g></svg>